<svg width="123" height="104" viewBox="0 0 123 104" fill="none" xmlns="http://www.w3.org/2000/svg">
<g id="order-food/rafiki">
<g id="Shadow">
<path id="path" d="M61.5036 103.41C87.8458 103.41 109.2 102.003 109.2 100.268C109.2 98.5319 87.8458 97.125 61.5036 97.125C35.1613 97.125 13.8066 98.5319 13.8066 100.268C13.8066 102.003 35.1613 103.41 61.5036 103.41Z" fill="#F5F5F5"/>
</g>
<g id="Device">
<path id="Vector" d="M90.4011 14.3125H58.5023C57.3026 14.3125 56.3301 15.4099 56.3301 16.7635V85.4193C56.3301 86.773 57.3026 87.8703 58.5023 87.8703H90.4011C91.6007 87.8703 92.5732 86.773 92.5732 85.4193V16.7635C92.5732 15.4099 91.6007 14.3125 90.4011 14.3125Z" fill="#263238"/>
<path id="Vector_2" d="M91.3466 16.7687V85.2663C91.3466 85.3991 91.3232 85.5305 91.2778 85.653C91.2324 85.7755 91.1659 85.8866 91.0821 85.9798C90.9984 86.073 90.899 86.1465 90.7899 86.1961C90.6807 86.2456 90.5639 86.2702 90.4462 86.2683H58.3556C58.2487 86.2699 58.1427 86.2471 58.0438 86.2013C57.945 86.1555 57.8553 86.0877 57.7802 86.0019C57.7051 85.9162 57.6461 85.8142 57.6068 85.7021C57.5674 85.59 57.5485 85.4701 57.5511 85.3496V16.6882C57.5452 16.4749 57.6142 16.2675 57.7433 16.1115C57.8724 15.9555 58.0509 15.8634 58.2399 15.8555H66.262C66.3743 15.8576 66.4836 15.8976 66.5756 15.9703C66.6677 16.043 66.7384 16.1451 66.7786 16.2635L67.1107 17.1851C67.152 17.3022 67.2231 17.4029 67.315 17.4746C67.4069 17.5462 67.5156 17.5855 67.6273 17.5875H81.2877C81.3989 17.5867 81.5075 17.5485 81.5995 17.4778C81.6915 17.4071 81.7628 17.3071 81.8043 17.1906L82.1364 16.2635C82.1771 16.1455 82.248 16.0438 82.3399 15.9712C82.4318 15.8986 82.5408 15.8583 82.653 15.8555H90.5594C90.7702 15.862 90.9704 15.9611 91.1174 16.1316C91.2644 16.3022 91.3467 16.5308 91.3466 16.7687Z" fill="white"/>
<path id="Vector_3" opacity="0.6" d="M91.3487 20.1318H57.5508V82.42H91.3487V20.1318Z" fill="white"/>
<path id="Vector_4" opacity="0.6" d="M61.2654 18.6172H61.6836V17.9898H61.2654V18.6172Z" fill="white"/>
<path id="Vector_5" opacity="0.6" d="M60.6091 18.6172H61.0273V17.7788H60.6091V18.6172Z" fill="white"/>
<path id="Vector_6" opacity="0.6" d="M59.9275 18.6182H60.3457V17.5716H59.9275V18.6182Z" fill="white"/>
<path id="Vector_7" opacity="0.6" d="M59.242 18.6172H59.6602V17.3596H59.242V18.6172Z" fill="white"/>
<path id="Vector_8" opacity="0.6" d="M87.5317 17.749H87.2832V18.3764H87.5317V17.749Z" fill="white"/>
<path id="Vector_9" opacity="0.6" d="M87.7053 18.6172H89.6758V17.5317H87.7053V18.6172Z" fill="white"/>
<path id="Vector_10" opacity="0.6" d="M90.9286 50.3057H57.9844V57.8316H90.9286V50.3057Z" fill="white"/>
<path id="Vector_11" opacity="0.6" d="M73.9962 16.4634C74.253 16.4634 74.4611 16.2285 74.4611 15.9387C74.4611 15.649 74.253 15.4141 73.9962 15.4141C73.7394 15.4141 73.5312 15.649 73.5312 15.9387C73.5312 16.2285 73.7394 16.4634 73.9962 16.4634Z" fill="white"/>
<path id="Vector_12" opacity="0.6" d="M75.3922 15.9492C75.3922 16.0158 75.3747 16.0808 75.3419 16.1361C75.309 16.1914 75.2624 16.2345 75.2079 16.2598C75.1533 16.2851 75.0934 16.2916 75.0356 16.2784C74.9778 16.2652 74.9247 16.233 74.8832 16.1857C74.8417 16.1385 74.8135 16.0784 74.8023 16.013C74.7911 15.9477 74.7973 15.88 74.8202 15.8187C74.8432 15.7574 74.8817 15.7051 74.931 15.6685C74.9802 15.632 75.038 15.6127 75.097 15.6133C75.1755 15.614 75.2506 15.6497 75.3059 15.7127C75.3612 15.7756 75.3922 15.8606 75.3922 15.9492Z" fill="white"/>
<path id="Vector_13" opacity="0.6" d="M90.9286 69.5957H57.9844V73.9736H90.9286V69.5957Z" fill="white"/>
<path id="Vector_14" d="M74.6366 70.9414V72.6903H74.4177V71.1579H74.0684V70.9414H74.6366Z" fill="#263238"/>
<path id="Vector_15" d="M83.2096 55.2091V55.5645H83.03V55.2091C82.7836 55.203 82.5459 55.1054 82.3535 54.9315L82.4568 54.6872C82.619 54.8384 82.8199 54.9269 83.03 54.9398V54.207C82.725 54.1209 82.4003 54.0126 82.4003 53.5823C82.4003 53.2714 82.5971 52.9994 83.03 52.9605V52.5996H83.2096V52.9549C83.4108 52.9623 83.6068 53.0293 83.7778 53.1493L83.6844 53.4019C83.5423 53.2975 83.3788 53.2363 83.2096 53.2242V53.9571C83.522 54.0459 83.859 54.1514 83.859 54.5817C83.859 54.8982 83.6524 55.1675 83.2096 55.2091ZM83.03 53.9099V53.2298C82.784 53.2659 82.6733 53.4074 82.6733 53.574C82.6733 53.7406 82.8308 53.8433 83.03 53.9099ZM83.5835 54.6039C83.5835 54.4013 83.4162 54.3263 83.2096 54.2597V54.9371C83.4704 54.9093 83.5835 54.7733 83.5835 54.6039Z" fill="#263238"/>
<path id="Vector_16" d="M84.6949 52.9727V55.1935H84.4194V53.2503H83.9766V52.9727H84.6949Z" fill="#263238"/>
<path id="Vector_17" d="M85.1212 54.989C85.1205 54.9606 85.1249 54.9323 85.1342 54.9059C85.1434 54.8795 85.1573 54.8554 85.175 54.8352C85.1927 54.815 85.2138 54.799 85.2371 54.7882C85.2604 54.7775 85.2854 54.7721 85.3106 54.7725C85.3615 54.7725 85.4103 54.7953 85.4463 54.8359C85.4822 54.8765 85.5025 54.9316 85.5025 54.989C85.5025 55.0464 85.4822 55.1015 85.4463 55.1421C85.4103 55.1827 85.3615 55.2055 85.3106 55.2055C85.2855 55.2056 85.2607 55.1999 85.2375 55.189C85.2144 55.1781 85.1934 55.1621 85.1758 55.142C85.1581 55.1218 85.1442 55.0979 85.1349 55.0717C85.1255 55.0454 85.1208 55.0173 85.1212 54.989Z" fill="#263238"/>
<path id="Vector_18" d="M87.2053 54.0545C87.2053 54.8068 86.8289 55.2093 86.2804 55.2093C86.1092 55.2169 85.9394 55.1728 85.7884 55.0816L85.8941 54.8345C86.0082 54.9092 86.1387 54.9458 86.2705 54.94C86.669 54.94 86.92 54.6624 86.92 54.1072V54.0267C86.8546 54.1246 86.7687 54.2026 86.6699 54.2535C86.571 54.3044 86.4625 54.3266 86.3542 54.3182C86.2706 54.3282 86.1862 54.3185 86.1062 54.2896C86.0262 54.2606 85.9524 54.2131 85.8897 54.1501C85.8269 54.0871 85.7765 54.01 85.7417 53.9237C85.7068 53.8375 85.6884 53.7439 85.6875 53.6491C85.6891 53.551 85.7087 53.4543 85.745 53.365C85.7813 53.2758 85.8336 53.196 85.8984 53.1306C85.9633 53.0652 86.0395 53.0156 86.1221 52.9849C86.2048 52.9543 86.2921 52.9432 86.3788 52.9523C86.9101 52.9523 87.2053 53.3493 87.2053 54.0545ZM86.8634 53.6353C86.8634 53.4076 86.701 53.2077 86.396 53.2077C86.3421 53.2007 86.2875 53.2066 86.2357 53.225C86.184 53.2434 86.1362 53.2739 86.0956 53.3144C86.055 53.355 86.0224 53.4048 86 53.4606C85.9776 53.5164 85.9658 53.5768 85.9655 53.638C85.9655 53.8962 86.1377 54.0628 86.4107 54.0628C86.4656 54.0701 86.5213 54.0646 86.5742 54.0468C86.6272 54.029 86.6763 53.9992 86.7187 53.9591C86.7611 53.9191 86.7958 53.8697 86.8207 53.814C86.8455 53.7584 86.8601 53.6975 86.8634 53.6353Z" fill="#263238"/>
<path id="Vector_19" d="M88.926 54.0545C88.926 54.8068 88.5496 55.2093 88.0011 55.2093C87.8299 55.2169 87.6601 55.1729 87.5091 55.0816L87.6148 54.8345C87.7288 54.9095 87.8594 54.9461 87.9912 54.94C88.3897 54.94 88.6407 54.6624 88.6407 54.1072V54.0267C88.5753 54.1246 88.4894 54.2026 88.3906 54.2535C88.2917 54.3044 88.1832 54.3266 88.0749 54.3182C87.9913 54.3283 87.9069 54.3185 87.8269 54.2896C87.7469 54.2606 87.6731 54.2131 87.6104 54.1501C87.5476 54.0871 87.4972 54.01 87.4624 53.9238C87.4275 53.8375 87.4091 53.7439 87.4082 53.6492C87.4095 53.5511 87.4288 53.4544 87.4648 53.3652C87.5008 53.276 87.5528 53.1962 87.6175 53.1307C87.6822 53.0653 87.7582 53.0156 87.8407 52.9849C87.9233 52.9542 88.0105 52.9432 88.097 52.9524C88.6308 52.9524 88.926 53.3493 88.926 54.0545ZM88.5841 53.6353C88.5841 53.4076 88.4217 53.2078 88.1167 53.2078C88.0628 53.2007 88.0082 53.2066 87.9564 53.225C87.9047 53.2434 87.8569 53.2739 87.8163 53.3145C87.7757 53.3551 87.7431 53.4048 87.7207 53.4606C87.6983 53.5164 87.6865 53.5768 87.6862 53.638C87.6862 53.8962 87.8559 54.0628 88.1314 54.0628C88.1863 54.0701 88.242 54.0647 88.2949 54.0468C88.3479 54.029 88.397 53.9992 88.4394 53.9591C88.4818 53.9191 88.5165 53.8697 88.5414 53.814C88.5662 53.7584 88.5808 53.6975 88.5841 53.6353Z" fill="#263238"/>
<path id="Vector_20" d="M60.5378 56.1246V56.2495H59.8908V56.1523L60.2574 55.7526C60.3533 55.6471 60.3705 55.5832 60.3705 55.5194C60.3705 55.4139 60.3066 55.35 60.1787 55.35C60.1355 55.3474 60.0924 55.3561 60.0528 55.3753C60.0131 55.3946 59.9779 55.4239 59.9499 55.4611L59.8613 55.375C59.9028 55.3236 59.9539 55.2832 60.0109 55.2568C60.0679 55.2304 60.1294 55.2186 60.191 55.2223C60.3779 55.2223 60.5009 55.3306 60.5009 55.5C60.4988 55.5625 60.4842 55.6236 60.4582 55.6789C60.4322 55.7342 60.3955 55.7821 60.3509 55.8192L60.0753 56.119L60.5378 56.1246Z" fill="#263238"/>
<path id="Vector_21" d="M60.6328 55.7408C60.6328 55.4105 60.7903 55.2217 61.0018 55.2217C61.2134 55.2217 61.3683 55.4105 61.3683 55.7408C61.3683 56.0712 61.2109 56.2599 61.0018 56.2599C60.7927 56.2599 60.6328 56.0656 60.6328 55.7408ZM61.2404 55.7408C61.2404 55.4799 61.142 55.3494 60.9944 55.3494C60.8468 55.3494 60.7484 55.4799 60.7484 55.7408C60.7484 56.0018 60.8468 56.1322 60.9944 56.1322C61.142 56.1322 61.2404 56.0018 61.2404 55.7408Z" fill="#263238"/>
<path id="Vector_22" d="M61.4568 55.5091C61.453 55.4748 61.4556 55.4401 61.4644 55.4071C61.4732 55.374 61.4881 55.3435 61.508 55.3173C61.528 55.2912 61.5525 55.27 61.5801 55.2552C61.6077 55.2404 61.6378 55.2323 61.6683 55.2314C61.7913 55.2314 61.875 55.3425 61.875 55.5091C61.875 55.6756 61.7913 55.7867 61.6683 55.7867C61.6378 55.7858 61.6077 55.7777 61.5801 55.7629C61.5525 55.7481 61.528 55.7269 61.508 55.7008C61.4881 55.6746 61.4732 55.6441 61.4644 55.611C61.4556 55.578 61.453 55.5433 61.4568 55.5091ZM61.7938 55.5091C61.7938 55.3869 61.747 55.3147 61.6683 55.3147C61.5896 55.3147 61.5404 55.3869 61.5404 55.5091C61.5404 55.6312 61.5896 55.7034 61.6683 55.7034C61.747 55.7034 61.7938 55.6229 61.7938 55.5091ZM62.212 55.2314H62.3104L61.6954 56.2475H61.5945L62.212 55.2314ZM62.0299 55.9782C62.0365 55.9332 62.0544 55.8912 62.0815 55.8573C62.1086 55.8234 62.1437 55.7989 62.1828 55.7868C62.2218 55.7748 62.263 55.7756 62.3017 55.7892C62.3403 55.8028 62.3746 55.8286 62.4007 55.8635C62.4267 55.8985 62.4433 55.9411 62.4485 55.9864C62.4537 56.0317 62.4473 56.0777 62.43 56.119C62.4127 56.1603 62.3853 56.1951 62.351 56.2194C62.3168 56.2436 62.277 56.2563 62.2366 56.2558C62.1136 56.2558 62.0299 56.1448 62.0299 55.9782ZM62.3645 55.9782C62.3645 55.8588 62.3153 55.7839 62.2366 55.7839C62.1579 55.7839 62.1111 55.8561 62.1111 55.9782C62.1111 56.1004 62.1603 56.1753 62.2366 56.1753C62.3128 56.1753 62.3645 56.1004 62.3645 55.9782Z" fill="#263238"/>
<path id="Vector_23" d="M62.5899 55.8651C62.5885 55.7857 62.608 55.7076 62.646 55.6408C62.684 55.574 62.7388 55.5214 62.8034 55.4899C62.868 55.4584 62.9395 55.4493 63.0086 55.4637C63.0778 55.4782 63.1416 55.5156 63.1919 55.5712C63.2422 55.6267 63.2767 55.6979 63.291 55.7757C63.3052 55.8534 63.2987 55.9343 63.2721 56.0078C63.2455 56.0813 63.2001 56.1442 63.1417 56.1885C63.0833 56.2329 63.0145 56.2565 62.9442 56.2565C62.8977 56.2588 62.8514 56.2503 62.808 56.2316C62.7646 56.2128 62.725 56.1842 62.6918 56.1475C62.6586 56.1108 62.6324 56.0668 62.6149 56.0183C62.5974 55.9697 62.5889 55.9176 62.5899 55.8651ZM63.173 55.8651C63.1761 55.8294 63.1725 55.7934 63.1623 55.7594C63.1522 55.7254 63.1358 55.6943 63.1141 55.668C63.0925 55.6417 63.0661 55.621 63.0368 55.6071C63.0075 55.5932 62.9759 55.5865 62.9442 55.5875C62.8898 55.6015 62.8413 55.6359 62.8065 55.6851C62.7718 55.7342 62.7528 55.7953 62.7528 55.8582C62.7528 55.9211 62.7718 55.9821 62.8065 56.0313C62.8413 56.0805 62.8898 56.1149 62.9442 56.1288C62.9749 56.1301 63.0056 56.124 63.0341 56.1111C63.0627 56.0982 63.0886 56.0787 63.1101 56.0539C63.1316 56.0291 63.1483 55.9995 63.1592 55.967C63.17 55.9345 63.1747 55.8998 63.173 55.8651Z" fill="#263238"/>
<path id="Vector_24" d="M63.5999 55.4102V55.4768H63.7968V55.5906H63.6024V56.2458H63.4794V55.5906H63.3613V55.4768H63.4794V55.4074C63.4771 55.3738 63.4814 55.34 63.4919 55.3085C63.5024 55.277 63.5189 55.2484 63.5402 55.2249C63.5616 55.2013 63.5872 55.1833 63.6154 55.1722C63.6436 55.161 63.6736 55.157 63.7033 55.1603C63.753 55.1577 63.8022 55.1733 63.8435 55.2047L63.8066 55.3102C63.7787 55.2873 63.7452 55.2747 63.7107 55.2741C63.6369 55.2741 63.5999 55.3213 63.5999 55.4102Z" fill="#263238"/>
<path id="Vector_25" d="M64.0545 55.4095V55.4761H64.2538V55.5899H64.057V56.2451H63.934V55.5899H63.8184V55.4761H63.934V55.4067C63.9316 55.3729 63.9359 55.3388 63.9466 55.3071C63.9572 55.2753 63.9739 55.2466 63.9956 55.223C64.0172 55.1994 64.0432 55.1815 64.0716 55.1705C64.1001 55.1596 64.1304 55.1559 64.1603 55.1596C64.2092 55.1574 64.2575 55.173 64.2981 55.2041L64.2612 55.3095C64.2337 55.2857 64.1999 55.273 64.1652 55.2735C64.0939 55.2735 64.0545 55.3207 64.0545 55.4095Z" fill="#263238"/>
<path id="Vector_26" d="M59.9397 53.0101C59.9385 52.8895 59.9592 52.77 60.0005 52.6587C60.0418 52.5475 60.1028 52.447 60.1797 52.3633C60.2566 52.2796 60.3479 52.2145 60.4479 52.172C60.5479 52.1295 60.6546 52.1105 60.7613 52.1162C60.8713 52.1117 60.9808 52.1342 61.0823 52.1821C61.1838 52.2301 61.2749 52.3023 61.3492 52.3938L61.2066 52.5521C61.1511 52.4847 61.0836 52.4313 61.0086 52.3954C60.9335 52.3595 60.8526 52.342 60.7711 52.3439C60.6719 52.3436 60.5743 52.3713 60.4869 52.4243C60.3995 52.4773 60.3252 52.554 60.2707 52.6475C60.2161 52.7411 60.1831 52.8484 60.1745 52.9599C60.1659 53.0714 60.182 53.1836 60.2214 53.2864C60.2608 53.3891 60.3222 53.4792 60.4002 53.5484C60.4781 53.6177 60.5701 53.664 60.6678 53.6831C60.7655 53.7022 60.866 53.6936 60.96 53.658C61.0541 53.6225 61.1388 53.561 61.2066 53.4793L61.3492 53.6375C61.2741 53.7287 61.1825 53.8006 61.0807 53.8485C60.9789 53.8964 60.8691 53.9191 60.7588 53.9151C60.6515 53.9205 60.5442 53.9009 60.4439 53.8575C60.3435 53.8142 60.252 53.7481 60.1752 53.6632C60.0984 53.5784 60.0379 53.4766 59.9974 53.3643C59.9568 53.2519 59.9372 53.1314 59.9397 53.0101Z" fill="#263238"/>
<path id="Vector_27" d="M61.4651 53.2123C61.4632 53.0757 61.4973 52.9415 61.5631 52.8268C61.629 52.7121 61.7235 52.6222 61.8348 52.5683C61.9461 52.5145 62.0691 52.4993 62.1881 52.5246C62.3071 52.5499 62.4167 52.6146 62.503 52.7104C62.5893 52.8062 62.6484 52.9289 62.6727 53.0627C62.6971 53.1966 62.6856 53.3356 62.6397 53.462C62.5938 53.5884 62.5157 53.6966 62.4151 53.7728C62.3146 53.8489 62.1963 53.8896 62.0752 53.8896C61.9949 53.8939 61.9147 53.8794 61.8397 53.847C61.7646 53.8146 61.6963 53.765 61.639 53.7014C61.5817 53.6378 61.5367 53.5615 61.5067 53.4773C61.4768 53.3932 61.4627 53.3029 61.4651 53.2123ZM62.4688 53.2123C62.4654 53.1247 62.4393 53.0401 62.3937 52.9692C62.348 52.8982 62.2849 52.844 62.2122 52.8132C62.1394 52.7824 62.0603 52.7765 61.9845 52.7961C61.9088 52.8157 61.8399 52.86 61.7863 52.9235C61.7327 52.987 61.6969 53.0668 61.6832 53.1531C61.6696 53.2394 61.6787 53.3284 61.7095 53.4089C61.7403 53.4893 61.7914 53.5578 61.8564 53.6058C61.9214 53.6538 61.9975 53.6791 62.0752 53.6786C62.1289 53.68 62.1822 53.6686 62.2318 53.6453C62.2814 53.6221 62.3262 53.5874 62.3632 53.5435C62.4003 53.4996 62.4288 53.4475 62.447 53.3904C62.4651 53.3334 62.4726 53.2727 62.4688 53.2123Z" fill="#263238"/>
<path id="Vector_28" d="M64.9522 53.11V53.8734H64.7382V53.1377C64.7382 52.8768 64.6275 52.7491 64.4356 52.7491C64.3854 52.7469 64.3355 52.7571 64.2892 52.7792C64.2429 52.8012 64.2015 52.8345 64.168 52.8766C64.1344 52.9188 64.1094 52.9687 64.0949 53.023C64.0804 53.0772 64.0766 53.1344 64.0838 53.1905V53.8734H63.8698V53.1377C63.8698 52.8768 63.7591 52.7491 63.5672 52.7491C63.5171 52.7469 63.4671 52.7571 63.4208 52.7792C63.3745 52.8012 63.3332 52.8345 63.2996 52.8766C63.266 52.9188 63.241 52.9687 63.2265 53.023C63.212 53.0772 63.2082 53.1344 63.2155 53.1905V53.8734H63.0039V52.5464H63.2056V52.7324C63.254 52.6641 63.3159 52.6096 63.3865 52.5735C63.457 52.5373 63.5341 52.5204 63.6115 52.5242C63.693 52.5179 63.7744 52.5375 63.8466 52.5806C63.9188 52.6238 63.9788 52.6889 64.0199 52.7685C64.0711 52.6889 64.1391 52.6249 64.2177 52.5823C64.2962 52.5396 64.383 52.5197 64.4701 52.5242C64.5381 52.5178 64.6065 52.5289 64.6701 52.5567C64.7338 52.5845 64.791 52.6283 64.8374 52.6847C64.8839 52.7412 64.9183 52.8088 64.9382 52.8824C64.9581 52.9561 64.9629 53.0339 64.9522 53.11Z" fill="#263238"/>
<path id="Vector_29" d="M66.5356 53.2056C66.5397 53.2951 66.5273 53.3846 66.4991 53.4683C66.4709 53.5521 66.4275 53.6283 66.3717 53.692C66.3159 53.7558 66.2489 53.8057 66.175 53.8386C66.1012 53.8714 66.022 53.8866 65.9427 53.883C65.862 53.8871 65.7816 53.8688 65.7087 53.8295C65.6357 53.7903 65.5725 53.7314 65.5245 53.6581V53.8691H65.3203V52.0146H65.5343V52.742C65.5827 52.6728 65.6449 52.6175 65.7159 52.5808C65.7869 52.5442 65.8647 52.5271 65.9427 52.531C66.0219 52.527 66.101 52.5418 66.1749 52.5743C66.2487 52.6069 66.3157 52.6565 66.3716 52.7201C66.4274 52.7836 66.4708 52.8596 66.4991 52.9432C66.5273 53.0269 66.5398 53.1162 66.5356 53.2056ZM66.3215 53.2056C66.3182 53.1181 66.2921 53.0337 66.2466 52.9628C66.2011 52.8919 66.1381 52.8376 66.0655 52.8068C65.9929 52.7759 65.9139 52.7698 65.8382 52.7892C65.7625 52.8085 65.6936 52.8526 65.6399 52.9158C65.5862 52.979 65.5502 53.0586 65.5362 53.1447C65.5223 53.2309 65.5311 53.3197 65.5615 53.4002C65.5919 53.4808 65.6426 53.5495 65.7073 53.5978C65.772 53.6461 65.8479 53.6719 65.9255 53.672C65.9794 53.6737 66.033 53.6626 66.0829 53.6395C66.1328 53.6164 66.1778 53.5818 66.2151 53.5379C66.2524 53.4939 66.2812 53.4417 66.2995 53.3844C66.3178 53.3272 66.3253 53.2663 66.3215 53.2056Z" fill="#263238"/>
<path id="Vector_30" d="M66.7249 53.2123C66.7229 53.0758 66.757 52.9417 66.8227 52.8271C66.8885 52.7125 66.9829 52.6225 67.094 52.5686C67.2052 52.5147 67.328 52.4993 67.4469 52.5244C67.5658 52.5495 67.6755 52.6139 67.7619 52.7094C67.8483 52.805 67.9076 52.9274 67.9322 53.061C67.9568 53.1947 67.9457 53.3336 67.9002 53.4601C67.8547 53.5866 67.7769 53.6949 67.6767 53.7714C67.5765 53.8479 67.4584 53.8891 67.3374 53.8896C67.2569 53.8943 67.1765 53.88 67.1011 53.8478C67.0258 53.8156 66.9571 53.7661 66.8996 53.7025C66.842 53.6388 66.7968 53.5624 66.7667 53.478C66.7366 53.3937 66.7224 53.3032 66.7249 53.2123ZM67.731 53.2123C67.7276 53.1247 67.7015 53.0401 67.6559 52.9692C67.6103 52.8982 67.5471 52.844 67.4744 52.8132C67.4017 52.7824 67.3225 52.7765 67.2468 52.7961C67.1711 52.8157 67.1021 52.86 67.0485 52.9235C66.995 52.9869 66.9591 53.0668 66.9455 53.1531C66.9318 53.2394 66.9409 53.3284 66.9717 53.4088C67.0025 53.4893 67.0536 53.5578 67.1186 53.6058C67.1836 53.6538 67.2597 53.6791 67.3374 53.6786C67.3911 53.68 67.4445 53.6686 67.4941 53.6453C67.5436 53.6221 67.5884 53.5874 67.6254 53.5435C67.6625 53.4996 67.691 53.4475 67.7092 53.3904C67.7274 53.3334 67.7348 53.2727 67.731 53.2123Z" fill="#263238"/>
<path id="Vector_31" d="M69.8271 53.6542V53.8735H68.7127V53.7013L69.3572 53.0101C69.522 52.8297 69.5515 52.7186 69.5515 52.6103C69.5515 52.4299 69.4384 52.3189 69.2219 52.3189C69.1473 52.3148 69.0729 52.3299 69.0043 52.3631C68.9357 52.3963 68.8746 52.4467 68.8258 52.5104L68.6758 52.3633C68.7453 52.2717 68.8324 52.1991 68.9304 52.151C69.0284 52.1029 69.1348 52.0806 69.2416 52.0857C69.5663 52.0857 69.7729 52.2744 69.7729 52.5743C69.7718 52.6818 69.7491 52.7876 69.7065 52.8838C69.6639 52.9799 69.6025 53.064 69.5269 53.1295L69.0522 53.643L69.8271 53.6542Z" fill="#263238"/>
<path id="Vector_32" opacity="0.6" d="M90.9286 58.3623H57.9844V69.0601H90.9286V58.3623Z" fill="white"/>
<path id="Vector_33" opacity="0.2" d="M71.1526 61.3949H59.8218C59.752 61.3949 59.6851 61.3636 59.6357 61.3079C59.5863 61.2522 59.5586 61.1766 59.5586 61.0978C59.5586 61.0191 59.5863 60.9435 59.6357 60.8878C59.6851 60.8321 59.752 60.8008 59.8218 60.8008H71.1526C71.1872 60.8004 71.2216 60.8079 71.2537 60.8227C71.2858 60.8374 71.3149 60.8593 71.3394 60.887C71.3639 60.9146 71.3833 60.9475 71.3964 60.9837C71.4095 61.0199 71.4161 61.0587 71.4158 61.0978C71.4161 61.1369 71.4095 61.1757 71.3964 61.2119C71.3833 61.2482 71.3639 61.281 71.3394 61.3087C71.3149 61.3364 71.2858 61.3582 71.2537 61.373C71.2216 61.3878 71.1872 61.3952 71.1526 61.3949Z" fill="black"/>
<path id="Vector_34" opacity="0.2" d="M89.0564 63.0433H59.8218C59.752 63.0433 59.6851 63.012 59.6357 62.9563C59.5863 62.9006 59.5586 62.825 59.5586 62.7463C59.5586 62.6675 59.5863 62.5919 59.6357 62.5362C59.6851 62.4805 59.752 62.4492 59.8218 62.4492H89.0564C89.1262 62.4492 89.1932 62.4805 89.2426 62.5362C89.2919 62.5919 89.3196 62.6675 89.3196 62.7463C89.3196 62.825 89.2919 62.9006 89.2426 62.9563C89.1932 63.012 89.1262 63.0433 89.0564 63.0433Z" fill="black"/>
<path id="Vector_35" opacity="0.2" d="M89.0564 64.6947H59.8218C59.7872 64.695 59.7528 64.6876 59.7207 64.6728C59.6886 64.658 59.6595 64.6362 59.635 64.6085C59.6105 64.5808 59.5911 64.5479 59.578 64.5117C59.5649 64.4755 59.5583 64.4367 59.5586 64.3976C59.5586 64.3188 59.5863 64.2433 59.6357 64.1876C59.6851 64.1319 59.752 64.1006 59.8218 64.1006H89.0564C89.1262 64.1006 89.1932 64.1319 89.2426 64.1876C89.2919 64.2433 89.3197 64.3188 89.3197 64.3976C89.32 64.4367 89.3134 64.4755 89.3003 64.5117C89.2872 64.5479 89.2678 64.5808 89.2433 64.6085C89.2188 64.6362 89.1896 64.658 89.1576 64.6728C89.1255 64.6876 89.0911 64.695 89.0564 64.6947Z" fill="black"/>
<path id="Vector_36" opacity="0.2" d="M89.0564 66.348H59.8218C59.752 66.348 59.6851 66.3167 59.6357 66.261C59.5863 66.2053 59.5586 66.1297 59.5586 66.0509C59.5586 65.9722 59.5863 65.8966 59.6357 65.8409C59.6851 65.7852 59.752 65.7539 59.8218 65.7539H89.0564C89.1262 65.7539 89.1932 65.7852 89.2426 65.8409C89.2919 65.8966 89.3196 65.9722 89.3196 66.0509C89.3196 66.1297 89.2919 66.2053 89.2426 66.261C89.1932 66.3167 89.1262 66.348 89.0564 66.348Z" fill="black"/>
<path id="Vector_37" opacity="0.2" d="M80.9694 70.6709H79.2499C79.1874 70.6709 79.1367 70.7281 79.1367 70.7986V72.7391C79.1367 72.8096 79.1874 72.8668 79.2499 72.8668H80.9694C81.0319 72.8668 81.0826 72.8096 81.0826 72.7391V70.7986C81.0826 70.7281 81.0319 70.6709 80.9694 70.6709Z" fill="black"/>
<path id="Vector_38" d="M80.2147 71.2256H79.9688V72.3166H80.2147V71.2256Z" fill="white"/>
<path id="Vector_39" d="M80.5918 71.6309H79.625V71.9085H80.5918V71.6309Z" fill="white"/>
<path id="Vector_40" opacity="0.2" d="M69.6647 70.6709H67.9452C67.8827 70.6709 67.832 70.7281 67.832 70.7986V72.7391C67.832 72.8096 67.8827 72.8668 67.9452 72.8668H69.6647C69.7272 72.8668 69.7779 72.8096 69.7779 72.7391V70.7986C69.7779 70.7281 69.7272 70.6709 69.6647 70.6709Z" fill="black"/>
<path id="Vector_41" d="M68.9101 71.2256H68.6641V72.3166H68.9101V71.2256Z" fill="white"/>
<path id="Vector_42" d="M69.2851 71.6309H68.3184V71.9085H69.2851V71.6309Z" fill="white"/>
<path id="Vector_43" d="M89.0247 75.5186H59.8713C59.3944 75.5186 59.0078 75.9548 59.0078 76.493V79.8187C59.0078 80.3569 59.3944 80.7931 59.8713 80.7931H89.0247C89.5016 80.7931 89.8882 80.3569 89.8882 79.8187V76.493C89.8882 75.9548 89.5016 75.5186 89.0247 75.5186Z" fill="white"/>
<path id="Vector_44" d="M69.245 78.167C69.2366 77.9303 69.2912 77.6963 69.4016 77.4948C69.512 77.2934 69.6732 77.1338 69.8646 77.0365C70.0559 76.9392 70.2687 76.9087 70.4755 76.9488C70.6824 76.989 70.8738 77.098 71.0254 77.2618C71.1769 77.4257 71.2817 77.6369 71.3261 77.8684C71.3705 78.0999 71.3526 78.3411 71.2746 78.561C71.1967 78.7809 71.0623 78.9695 70.8887 79.1026C70.7151 79.2357 70.5102 79.3072 70.3003 79.308C70.1637 79.3155 70.0271 79.2915 69.899 79.2375C69.7709 79.1835 69.6538 79.1006 69.555 78.9938C69.4563 78.887 69.3778 78.7586 69.3245 78.6164C69.2712 78.4743 69.2441 78.3214 69.245 78.167ZM71.0654 78.167C71.0673 77.9944 71.0237 77.8252 70.9401 77.6807C70.8564 77.5362 70.7366 77.4231 70.5958 77.3558C70.455 77.2885 70.2996 77.27 70.1495 77.3027C69.9993 77.3355 69.8612 77.4179 69.7528 77.5395C69.6443 77.6611 69.5704 77.8165 69.5404 77.9857C69.5104 78.1549 69.5258 78.3303 69.5845 78.4897C69.6433 78.649 69.7427 78.785 69.8702 78.8803C69.9977 78.9756 70.1474 79.0259 70.3003 79.0248C70.4014 79.029 70.5021 79.0098 70.5963 78.9683C70.6905 78.9267 70.7761 78.8638 70.8479 78.7833C70.9196 78.7029 70.9759 78.6067 71.0134 78.5007C71.0508 78.3946 71.0685 78.2811 71.0654 78.167Z" fill="white"/>
<path id="Vector_45" d="M73.0838 79.284L72.6557 78.5983H72.5327H72.0407V79.2785H71.7578V77.0576H72.5303C73.0444 77.0576 73.3544 77.3491 73.3544 77.8349C73.3612 77.9903 73.3222 78.1438 73.2434 78.2714C73.1646 78.399 73.0505 78.4935 72.9189 78.54L73.3888 79.2896L73.0838 79.284ZM73.0838 77.8294C73.0838 77.5101 72.8943 77.3297 72.5327 77.3297H72.0407V78.3346H72.5327C72.8845 78.3346 73.0739 78.1486 73.0739 77.8294H73.0838Z" fill="white"/>
<path id="Vector_46" d="M73.8281 77.0518H74.6621C75.2967 77.0518 75.7297 77.5043 75.7297 78.1622C75.7297 78.8201 75.2967 79.2726 74.6621 79.2726H73.8281V77.0518ZM74.6448 78.995C74.8406 78.995 75.0283 78.9073 75.1667 78.7511C75.3051 78.5949 75.3828 78.3831 75.3828 78.1622C75.3828 77.9413 75.3051 77.7295 75.1667 77.5733C75.0283 77.4171 74.8406 77.3294 74.6448 77.3294H74.111V78.995H74.6448Z" fill="white"/>
<path id="Vector_47" d="M77.6002 79.0058V79.2834H76.166V77.0625H77.5608V77.3401H76.4465V78.0258H77.4305V78.3034H76.4465V79.0252L77.6002 79.0058Z" fill="white"/>
<path id="Vector_48" d="M79.3611 79.284L78.9331 78.5983H78.8101H78.3181V79.2785H78.0352V77.0576H78.8076C79.3217 77.0576 79.6317 77.3491 79.6317 77.8349C79.6404 77.9913 79.6025 78.1465 79.524 78.2758C79.4456 78.405 79.3311 78.501 79.1987 78.5484L79.6686 79.2979L79.3611 79.284ZM79.3611 77.8294C79.3611 77.5101 79.1717 77.3297 78.8101 77.3297H78.3304V78.3346H78.8101C79.1618 78.3346 79.3513 78.1486 79.3513 77.8294H79.3611Z" fill="white"/>
<path id="Vector_49" opacity="0.2" d="M89.0448 35.0407C89.2416 36.4149 88.9633 37.8218 88.2675 38.9712C86.9637 41.0697 84.6242 41.772 83.0523 43.5346C81.628 45.1334 80.89 47.6816 78.9072 48.5754C78.0019 48.9834 76.9835 48.9307 76.029 48.7169C73.9552 48.2534 72.093 47.0792 70.2185 46.0439C67.7142 44.656 64.8065 44.0592 62.4129 42.5048C61.3108 41.7914 60.3391 40.7144 59.9529 39.3487C59.1214 36.4453 60.9172 33.6029 62.8065 31.8541C64.221 30.544 65.8569 29.4476 67.0352 27.8404C68.1201 26.3581 68.5678 24.3735 69.8175 23.0328C70.8286 21.9474 72.2775 21.4672 73.6699 21.5061C77.5173 21.6088 79.2221 24.3207 81.4484 27.3352C83.2958 29.8334 86.5701 30.2831 88.2749 32.9117C88.6778 33.5422 88.9418 34.2721 89.0448 35.0407Z" fill="white"/>
<path id="Vector_50" d="M76.8103 29.5066L76.0723 41.0149C76.0723 41.0149 78.7783 43.0995 81.7991 42.2141L84.7339 31.8327C84.7339 31.8327 82.8176 28.5073 76.8103 29.5066Z" fill="#263238"/>
<path id="Vector_51" d="M76.7389 29.0937L76.6602 30.3235C76.6602 30.3235 78.9726 32.7748 84.6551 32.5972L85.1816 31.2313C84.0471 30.1027 82.6787 29.3151 81.203 28.9415C79.7273 28.5679 78.1919 28.6202 76.7389 29.0937Z" fill="#263238"/>
<path id="Vector_52" opacity="0.8" d="M76.7389 29.0937L76.6602 30.3235C76.6602 30.3235 78.9726 32.7748 84.6551 32.5972L85.1816 31.2313C84.0471 30.1027 82.6787 29.3151 81.203 28.9415C79.7273 28.5679 78.1919 28.6202 76.7389 29.0937Z" fill="white"/>
<path id="Vector_53" opacity="0.2" d="M84.9585 31.2562C81.5145 31.7753 78.5625 30.3096 77.4334 29.635C77.1136 29.4462 76.9414 29.3213 76.9414 29.3213C77.0398 29.288 77.1382 29.2602 77.2366 29.2324C77.7208 29.0931 78.2145 29.0002 78.7126 28.9548C80.2534 28.825 81.7968 29.1634 83.1824 29.9348C83.8256 30.2808 84.4233 30.7255 84.9585 31.2562Z" fill="black"/>
<path id="Vector_54" d="M86.461 26.8413C86.3355 28.1349 86.2888 30.081 84.9383 31.2552C83.6934 31.4359 82.4308 31.389 81.1991 31.1164C80.493 30.9639 79.7988 30.7486 79.1228 30.4724C78.5364 30.2403 77.9651 29.962 77.4131 29.6396C77.3387 29.5107 77.2721 29.3762 77.2139 29.237C77.081 28.9233 76.99 28.5347 77.3074 28.4625C77.8486 28.3404 77.7354 28.271 77.701 27.9711C77.6665 27.6713 77.7698 27.3604 77.8805 27.6574C77.9912 27.9545 77.9002 28.6235 78.0208 28.704C78.1413 28.7845 78.7317 28.3903 78.6874 28.9816C78.6586 29.2151 78.6635 29.4523 78.7022 29.684C78.7022 29.7117 78.7169 29.7367 78.7268 29.7645C78.7255 29.7675 78.7248 29.7708 78.7248 29.7742C78.7248 29.7776 78.7255 29.7809 78.7268 29.7839C78.773 29.9066 78.8523 30.0096 78.9535 30.0784C79.0546 30.1472 79.1724 30.1782 79.2901 30.167C79.9396 30.2087 80.3799 29.7534 81.0416 29.5424C81.7034 29.3314 82.5004 29.3814 82.6259 30.1698C82.7513 30.9582 83.3073 30.6723 83.1818 30.1254L83.1523 29.9616C83.0711 29.423 83.1302 28.7512 83.386 29.1038C83.6419 29.4563 83.2778 29.5951 83.4943 29.8394C83.7107 30.0837 84.0231 29.6729 84.1314 28.9511C84.2396 28.2293 84.7365 26.6497 84.1314 25.778C83.5262 24.9063 83.7255 24.7259 84.1314 24.8314C84.5373 24.9369 84.3184 25.7225 84.7193 25.9418C85.1203 26.1611 85.2482 25.0118 85.0318 24.4511C84.8153 23.8903 84.5398 22.9437 85.1548 23.063C85.7698 23.1824 85.6468 24.1152 85.6468 24.7287C85.6468 25.3422 85.8017 25.7447 85.9862 25.5171C86.0177 25.4754 86.0625 25.4494 86.1108 25.4448C86.1592 25.4401 86.2072 25.4571 86.2445 25.4921C86.397 25.6115 86.5373 26.0168 86.461 26.8413Z" fill="white"/>
<path id="Vector_55" d="M80.5137 26.0189L81.3821 25.1777L82.3907 26.0189V27.1404L81.5223 27.5069L80.5137 27.0155V26.0189Z" fill="white"/>
<path id="Vector_56" opacity="0.8" d="M80.5137 26.0189L81.3821 25.1777L82.3907 26.0189V27.1404L81.5223 27.5069L80.5137 27.0155V26.0189Z" fill="white"/>
<path id="Vector_57" opacity="0.5" d="M81.3633 25.1777V26.5574L82.3719 27.1404V26.0189L81.3633 25.1777Z" fill="white"/>
<path id="Vector_58" opacity="0.2" d="M86.2403 25.4785C86.1023 25.605 85.9914 25.7651 85.916 25.9468C85.8406 26.1286 85.8026 26.3272 85.8049 26.5278C85.7557 27.4939 85.4802 27.4578 84.9439 27.0497C84.4076 26.6417 84.5946 27.5356 84.725 29.3095C84.8554 31.0834 83.431 31.3582 82.8013 31.1139C82.1715 30.8696 82.6856 30.6614 82.2896 30.3866C81.9452 30.1451 81.9968 30.9751 81.2047 31.1111C81.0616 31.1281 80.9173 31.1281 80.7742 31.1111C80.0018 31.0195 79.468 30.8169 79.1285 30.4643C78.9418 30.2723 78.8049 30.0267 78.7324 29.7536C78.7786 29.8763 78.858 29.9794 78.9591 30.0482C79.0603 30.1169 79.1781 30.1479 79.2958 30.1367C79.9452 30.1784 80.3855 29.7231 81.0473 29.5121C81.709 29.3011 82.5061 29.3511 82.6315 30.1395C82.757 30.9279 83.3129 30.642 83.1875 30.0951L83.158 29.9313C83.0768 29.3928 83.1358 28.7209 83.3917 29.0735C83.6475 29.4261 83.2834 29.5649 83.4999 29.8092C83.7164 30.0535 84.0288 29.6426 84.137 28.9208C84.2453 28.199 84.7422 26.6195 84.137 25.7478C83.5319 24.8761 83.7311 24.6956 84.137 24.8011C84.5429 24.9066 84.324 25.6922 84.725 25.9116C85.126 26.1309 85.2539 24.9816 85.0374 24.4208C84.8209 23.86 84.5454 22.9134 85.1604 23.0328C85.7754 23.1521 85.6524 24.0849 85.6524 24.6984C85.6524 25.3119 85.8074 25.7144 85.9919 25.4868C86.0249 25.4507 86.0687 25.4299 86.1147 25.4283C86.1606 25.4268 86.2055 25.4447 86.2403 25.4785Z" fill="black"/>
<path id="Vector_59" d="M80.002 30.4382L79.2247 30.2467L79.2148 29.2611L79.7659 28.792L80.312 29.1806L80.4916 30.019L80.002 30.4382Z" fill="white"/>
<path id="Vector_60" opacity="0.8" d="M80.002 30.4382L79.2247 30.2467L79.2148 29.2611L79.7659 28.792L80.312 29.1806L80.4916 30.019L80.002 30.4382Z" fill="white"/>
<path id="Vector_61" opacity="0.5" d="M79.2247 30.2467L79.9012 29.6692L79.7659 28.792L79.2148 29.2611L79.2247 30.2467Z" fill="white"/>
<path id="Vector_62" opacity="0.8" d="M81.4528 34.1621C83.7824 34.1621 83.5979 39.1591 80.8033 39.1424C78.0088 39.1257 78.8206 34.1621 81.4528 34.1621Z" fill="white"/>
<path id="Vector_63" opacity="0.2" d="M81.3862 34.5488C83.3542 34.5488 83.1943 38.7546 80.8376 38.7463C78.4809 38.7379 79.1673 34.5488 81.3862 34.5488Z" fill="black"/>
<path id="Vector_64" d="M62.5503 42.5719C62.5503 42.5719 61.8984 43.7545 61.8984 44.0682C61.8984 44.3819 62.3904 45.9338 62.7127 46.2752C63.035 46.6167 66.9513 47.6633 71.7237 46.8554C76.4961 46.0476 77.8245 43.5435 78.0582 42.9384C78.2919 42.3332 78.2107 40.0207 77.6966 39.918C77.1824 39.8153 63.4605 41.7558 62.5503 42.5719Z" fill="#263238"/>
<path id="Vector_65" opacity="0.5" d="M78.0582 42.9427C77.8245 43.5451 76.4961 46.0436 71.7237 46.8542C66.9513 47.6648 63.0399 46.6182 62.7127 46.2795C62.3855 45.9408 61.8984 44.3862 61.8984 44.0587C61.9245 43.8855 61.9761 43.7185 62.051 43.5645C62.2478 43.1148 62.543 42.5624 62.543 42.5624C63.4507 41.749 77.1775 39.8029 77.6892 39.9084C77.8491 39.939 77.9671 40.186 78.0459 40.5247C78.2205 41.2909 78.2205 42.5263 78.0582 42.9427Z" fill="white"/>
<path id="Vector_66" opacity="0.2" d="M78.0648 40.5335C77.5949 41.4024 75.9984 43.4539 71.5483 44.1785C66.5372 44.9947 62.4315 43.9425 62.092 43.6011L62.0625 43.5733C62.2593 43.1236 62.5545 42.5711 62.5545 42.5711C63.4622 41.7578 77.189 39.8117 77.7007 39.9172C77.868 39.9477 77.9861 40.192 78.0648 40.5335Z" fill="black"/>
<path id="Vector_67" d="M62.4013 42.5271C61.8897 42.4855 61.6314 42.9324 61.9339 43.2211C62.2365 43.5099 62.7974 43.2739 62.8195 43.8541C62.8417 44.4343 62.8663 45.1672 63.1689 44.773C63.4714 44.3788 63.1935 43.9402 64.0077 44.0901C64.4997 44.1844 65.1516 44.5398 65.6313 44.1817C65.7174 44.1178 65.7888 44.0318 65.8773 43.9735C65.9747 43.921 66.0759 43.8783 66.1799 43.8458C66.3165 43.7844 66.4475 43.7081 66.571 43.6181C66.7309 43.5071 66.9154 43.3572 66.9081 43.1434C66.8954 43.0484 66.8543 42.9611 66.7917 42.896C66.7291 42.8309 66.6486 42.7918 66.5637 42.7853C66.3963 42.778 66.2292 42.8072 66.0717 42.8714C65.9077 42.9213 65.7437 42.963 65.5797 42.9963C65.2722 43.0546 64.9966 42.8991 64.6965 42.8408C64.3447 42.7714 63.9905 42.7159 63.6363 42.6687C63.2107 42.6104 62.8072 42.5604 62.4013 42.5271Z" fill="white"/>
<path id="Vector_68" d="M67.1035 43.2486C67.1035 43.2486 68.3926 44.4006 68.8846 44.3784C69.3766 44.3562 69.5266 44.3007 69.7185 44.6144C69.9104 44.9281 70.7787 45.586 70.9042 44.9309C71.0297 44.2757 71.4922 43.9315 71.7972 44.037C72.1022 44.1424 72.6803 44.3146 72.914 43.8288C72.9498 43.7365 73.0032 43.6543 73.0704 43.5881C73.1376 43.5219 73.2169 43.4732 73.3027 43.4457C73.4577 43.379 73.6151 43.3096 73.7701 43.2513C73.9732 43.2218 74.1734 43.1707 74.3679 43.0986C74.5721 42.9682 74.6483 42.685 74.7861 42.4712C74.9312 42.2474 75.1453 42.0929 75.3863 42.0382C75.5915 42.0145 75.7976 42.0034 76.0038 42.0049C76.1068 42.0041 76.2081 41.9754 76.2993 41.9213C76.3905 41.8672 76.4688 41.7892 76.5278 41.6939C76.6163 41.5163 76.5917 41.2914 76.6655 41.1026C76.716 40.9748 76.8074 40.8731 76.9214 40.818C77.0354 40.7629 77.1637 40.7585 77.2805 40.8056C77.3446 40.8446 77.4148 40.8691 77.4872 40.8778C77.6544 40.8778 77.8094 40.6002 77.9398 40.7112C78.0702 40.8223 78.0087 41.0138 78.1686 41.0943C78.1858 40.7889 78.1686 40.4808 78.1809 40.1754C78.1908 40.0683 78.1728 39.9603 78.1292 39.8645C78.0281 39.6372 77.8705 39.4482 77.6756 39.3205C77.4807 39.1928 77.2571 39.132 77.0321 39.1455C76.4982 39.1233 75.9251 39.1177 75.4798 39.4536C75.0345 39.7896 74.8254 40.3753 74.4417 40.7806C74.2235 40.9966 73.9802 41.1778 73.7184 41.3192C73.0659 41.7124 72.3922 42.0591 71.7013 42.3574C71.074 42.635 70.2868 42.635 69.6176 42.7433C68.7837 42.8988 67.9399 43.0626 67.1035 43.2486Z" fill="white"/>
<path id="Vector_69" d="M77.7734 40.3642C77.6897 40.739 77.3675 41.0083 77.0993 41.2248L76.8533 41.4247C76.7027 41.5584 76.5373 41.6694 76.3613 41.7551C76.1762 41.8181 75.9858 41.859 75.7931 41.8772C75.0167 42.0021 74.2775 42.3322 73.6357 42.8405C73.4752 42.9969 73.2862 43.1116 73.0822 43.1764C72.8983 43.1893 72.7139 43.1828 72.5311 43.157C72.4394 43.1436 72.3462 43.1598 72.2622 43.2035C72.1783 43.2472 72.1069 43.3167 72.0563 43.404C72.039 43.4652 72.0123 43.5225 71.9776 43.5734C71.9352 43.6077 71.8847 43.6271 71.8325 43.6289C71.2204 43.7158 70.6043 43.7612 69.9875 43.7649C69.3602 43.7649 68.7304 43.7288 68.1056 43.69L66.8756 43.6095C66.6735 43.5873 66.47 43.5873 66.268 43.6095C66.0736 43.6372 65.8817 43.7066 65.6899 43.7511C65.4513 43.7917 65.2104 43.8131 64.9691 43.8149L64.2311 43.8343C63.5915 43.8538 63.0404 43.4929 62.45 43.2347C62.3752 43.2088 62.3069 43.1631 62.2508 43.1015C62.1056 42.9127 62.2508 42.6045 62.1696 42.3713C62.1451 42.3195 62.1261 42.2645 62.113 42.2076C62.1172 42.1259 62.1374 42.0462 62.1721 41.9744C62.1817 41.9493 62.1891 41.9233 62.1942 41.8966C62.1902 41.7818 62.1624 41.6696 62.113 41.5691C62.0782 41.4565 62.0591 41.3385 62.0564 41.2193C62.0515 41.1528 62.0515 41.0859 62.0564 41.0194C62.0632 40.9693 62.0765 40.9207 62.0958 40.875C62.2139 40.5974 62.7625 40.6196 62.9986 40.553C64.6837 40.0644 66.4082 39.7202 68.1203 39.3815C70.1277 38.978 72.1408 38.6079 74.1596 38.2711C74.8976 38.1545 75.6356 38.0407 76.3736 37.9518C76.6313 37.8959 76.8935 37.8708 77.1559 37.8769C77.2897 37.8901 77.415 37.956 77.5102 38.0629C77.5363 38.0912 77.5572 38.1252 77.5717 38.1628C77.5981 38.2804 77.5886 38.4046 77.5446 38.5154C77.5187 38.6993 77.5187 38.8867 77.5446 39.0706C77.5425 39.1673 77.5628 39.263 77.6036 39.3482C77.6396 39.3911 77.671 39.4386 77.6971 39.4898C77.7439 39.6119 77.6971 39.7674 77.6971 39.9145C77.6971 40.0616 77.8201 40.156 77.7734 40.3642Z" fill="#263238"/>
<path id="Vector_70" opacity="0.2" d="M77.3847 39.0575C77.3035 39.4379 76.9813 39.7044 76.7131 39.9209L76.4671 40.118C76.3171 40.2526 76.1516 40.3637 75.9751 40.4483C75.7912 40.5134 75.6014 40.5553 75.4093 40.5733C74.6313 40.6961 73.8907 41.0274 73.2494 41.5393C73.0886 41.6944 72.8997 41.8081 72.6959 41.8725C72.5121 41.8858 72.3275 41.8783 72.1449 41.8503C72.0532 41.8369 71.96 41.853 71.876 41.8967C71.792 41.9404 71.7207 42.01 71.6701 42.0973C71.6534 42.1588 71.6267 42.2162 71.5914 42.2667C71.5492 42.3019 71.4987 42.3221 71.4463 42.325C70.835 42.4114 70.2198 42.4577 69.6037 42.4638C68.974 42.4638 68.3467 42.4249 67.7194 42.3833L66.4894 42.3028C66.2872 42.282 66.0839 42.282 65.8817 42.3028C65.6874 42.3333 65.498 42.3999 65.3036 42.4416C65.0654 42.4852 64.8243 42.5066 64.5829 42.5054L63.8449 42.5276C63.2446 42.5471 62.7206 42.2278 62.1721 41.9724C62.1817 41.9474 62.1891 41.9213 62.1942 41.8947C62.1902 41.7798 62.1624 41.6676 62.113 41.5671C62.0782 41.4545 62.0591 41.3365 62.0564 41.2173C62.0515 41.1508 62.0515 41.0839 62.0564 41.0174C62.0632 40.9674 62.0765 40.9187 62.0958 40.8731C62.2139 40.5955 62.7625 40.6177 62.9986 40.5511C64.6837 40.0625 66.4082 39.7182 68.1203 39.3796C70.1277 38.9761 72.1408 38.606 74.1596 38.2691C74.8976 38.1525 75.6356 38.0387 76.3736 37.9499C76.6313 37.8939 76.8935 37.8688 77.1559 37.8749C77.1617 37.929 77.1776 37.981 77.2027 38.0276C77.2389 38.0713 77.2703 38.1197 77.2961 38.172C77.3453 38.2913 77.2961 38.4634 77.2961 38.5939C77.3527 38.7855 77.4314 38.8576 77.3847 39.0575Z" fill="black"/>
<path id="Vector_71" d="M61.6832 40.5356C61.5848 40.8354 63.6143 43.8669 63.6143 43.8669C63.6143 43.8669 66.5244 41.2657 68.5047 40.8965C70.485 40.5272 77.0262 40.9242 77.0262 40.9242C77.0262 40.9242 77.4075 38.3452 77.346 37.729C77.2845 37.1127 62.7779 37.2126 61.6832 40.5356Z" fill="white"/>
<path id="Vector_72" opacity="0.7" d="M61.6832 40.5356C61.5848 40.8354 63.6143 43.8669 63.6143 43.8669C63.6143 43.8669 66.5244 41.2657 68.5047 40.8965C70.485 40.5272 77.0262 40.9242 77.0262 40.9242C77.0262 40.9242 77.4075 38.3452 77.346 37.729C77.2845 37.1127 62.7779 37.2126 61.6832 40.5356Z" fill="white"/>
<path id="Vector_73" d="M63.5817 40.334L64.2189 41.8636C64.2189 41.8636 65.5719 41.3084 66.0368 41.8636C66.3028 42.1449 66.4689 42.5258 66.5042 42.9352C66.5042 42.9352 66.8486 41.2279 67.4439 41.636C67.8491 41.9298 68.2208 42.2785 68.5509 42.6742C68.5509 42.6742 69.3898 41.1224 70.1352 41.636L70.8732 42.1468C70.8732 42.1468 71.4783 40.5977 72.4107 40.5311C73.343 40.4645 73.7268 40.6255 73.8055 40.334C73.8842 40.0425 75.9949 38.3907 76.974 38.4574L77.958 38.5212C77.958 38.5212 78.1449 37.0499 78.696 37.0499C78.696 37.0499 77.5791 36.3198 77.6013 35.412C77.6013 35.065 76.8805 35.9284 76.3713 35.412C75.8621 34.8957 61.1709 38.2131 61.1709 38.2131C61.1709 38.2131 61.2816 38.0798 60.583 38.4574C59.8844 38.8349 60.8634 38.735 60.583 39.5512C60.3026 40.3673 61.6088 39.504 61.9803 40.0897C62.3517 40.6755 63.5817 40.334 63.5817 40.334Z" fill="white"/>
<path id="Vector_74" opacity="0.5" d="M63.5817 40.334L64.2189 41.8636C64.2189 41.8636 65.5719 41.3084 66.0368 41.8636C66.3028 42.1449 66.4689 42.5258 66.5042 42.9352C66.5042 42.9352 66.8486 41.2279 67.4439 41.636C67.8491 41.9298 68.2208 42.2785 68.5509 42.6742C68.5509 42.6742 69.3898 41.1224 70.1352 41.636L70.8732 42.1468C70.8732 42.1468 71.4783 40.5977 72.4107 40.5311C73.343 40.4645 73.7268 40.6255 73.8055 40.334C73.8842 40.0425 75.9949 38.3907 76.974 38.4574L77.958 38.5212C77.958 38.5212 78.1449 37.0499 78.696 37.0499C78.696 37.0499 77.5791 36.3198 77.6013 35.412C77.6013 35.065 76.8805 35.9284 76.3713 35.412C75.8621 34.8957 61.1709 38.2131 61.1709 38.2131C61.1709 38.2131 61.2816 38.0798 60.583 38.4574C59.8844 38.8349 60.8634 38.735 60.583 39.5512C60.3026 40.3673 61.6088 39.504 61.9803 40.0897C62.3517 40.6755 63.5817 40.334 63.5817 40.334Z" fill="white"/>
<path id="Vector_75" d="M67.2552 40.1825C66.1999 42.0231 61.4201 42.4783 61.0511 40.9126C60.9702 40.583 60.9501 40.2381 60.9921 39.8993C61.0574 39.3657 61.2979 38.8792 61.6661 38.5363C63.6636 37.3648 66.8764 37.9811 67.3585 39.2775C67.4122 39.4256 67.4308 39.5868 67.4127 39.7454C67.3946 39.904 67.3403 40.0546 67.2552 40.1825Z" fill="white"/>
<path id="Vector_76" opacity="0.2" d="M67.3567 39.2769C67.3286 39.3544 67.294 39.4288 67.2534 39.4989C66.1981 41.3395 61.4183 41.7948 61.0493 40.2318C61.0235 40.1223 61.0037 40.011 60.9902 39.8987C61.0556 39.3651 61.2961 38.8786 61.6643 38.5356C63.6618 37.3641 66.8745 37.9943 67.3567 39.2769Z" fill="black"/>
<path id="Vector_77" d="M77.2028 39.0929C76.1499 40.9307 71.3677 41.3887 71.0011 39.823C70.919 39.4927 70.8989 39.1466 70.9421 38.807C71.0078 38.2742 71.2483 37.7888 71.6161 37.4467C73.6112 36.2724 76.8239 36.8915 77.3086 38.1879C77.3616 38.3362 77.3797 38.4975 77.3612 38.6561C77.3427 38.8147 77.2881 38.9652 77.2028 39.0929Z" fill="white"/>
<path id="Vector_78" opacity="0.2" d="M77.304 38.1875C77.275 38.2651 77.2395 38.3395 77.1982 38.4096C76.1453 40.2474 71.3631 40.7054 70.9965 39.1397C70.9691 39.0306 70.9493 38.9192 70.9375 38.8066C71.0032 38.2739 71.2437 37.7884 71.6115 37.4463C73.6066 36.272 76.8194 36.9077 77.304 38.1875Z" fill="black"/>
<path id="Vector_79" d="M68.8355 30.3275C73.849 29.8556 78.1835 34.7886 77.2192 37.3399C76.2549 39.8911 62.6806 42.0592 61.4039 39.136C60.1271 36.2128 63.5613 30.8244 68.8355 30.3275Z" fill="#263238"/>
<path id="Vector_80" opacity="0.5" d="M68.8355 30.3275C73.849 29.8556 78.1835 34.7886 77.2192 37.3399C76.2549 39.8911 62.6806 42.0592 61.4039 39.136C60.1271 36.2128 63.5613 30.8244 68.8355 30.3275Z" fill="white"/>
<path id="Vector_81" opacity="0.2" d="M68.4671 33.5176C68.4671 33.5176 68.2334 34.1672 68.4671 34.1672C68.7008 34.1672 68.4671 33.5176 68.4671 33.5176Z" fill="white"/>
<path id="Vector_82" opacity="0.2" d="M70.3027 32.7461C70.3027 32.7461 70.7209 33.3763 70.7455 33.0876C70.7701 32.7988 70.3027 32.7461 70.3027 32.7461Z" fill="white"/>
<path id="Vector_83" opacity="0.2" d="M67.5706 32.5029C67.5706 32.5029 66.9408 32.6334 67.1056 32.8166C67.2705 32.9998 67.5706 32.5029 67.5706 32.5029Z" fill="white"/>
<path id="Vector_84" opacity="0.2" d="M65.569 33.2998C65.569 33.2998 65.1041 33.3414 65.173 33.5163C65.2419 33.6912 65.569 33.2998 65.569 33.2998Z" fill="white"/>
<path id="Vector_85" opacity="0.2" d="M66.7407 31.1414C66.7407 31.1414 66.2266 31.0609 66.2266 31.2468C66.2266 31.4328 66.7407 31.1414 66.7407 31.1414Z" fill="white"/>
<path id="Vector_86" opacity="0.2" d="M68.5781 31.4551C68.5781 31.4551 68.4969 31.9548 68.6839 31.902C68.8708 31.8493 68.5781 31.4551 68.5781 31.4551Z" fill="white"/>
<path id="Vector_87" opacity="0.2" d="M71.498 31.9104C71.498 31.9104 71.9113 32.1242 71.9113 31.9104C71.9113 31.6967 71.498 31.9104 71.498 31.9104Z" fill="white"/>
<path id="Vector_88" opacity="0.2" d="M70.0508 30.8219C70.0508 30.8219 70.2796 30.5443 70.3976 30.6109C70.5157 30.6775 70.0508 30.8219 70.0508 30.8219Z" fill="white"/>
<path id="Vector_89" opacity="0.2" d="M67.9981 30.8296C68.2441 30.7769 68.1137 31.1294 68.1137 31.1294C68.1137 31.1294 67.7423 30.8823 67.9981 30.8296Z" fill="white"/>
<path id="Vector_90" opacity="0.2" d="M66.4858 34.6348C66.4858 34.6348 66.1808 34.8457 66.2275 35.004C66.2743 35.1622 66.4858 34.6348 66.4858 34.6348Z" fill="white"/>
<path id="Vector_91" opacity="0.2" d="M72.9355 33.4258C72.9355 33.4258 73.4472 33.6423 73.2627 33.8366C73.0782 34.031 72.9355 33.4258 72.9355 33.4258Z" fill="white"/>
<path id="Vector_92" opacity="0.2" d="M70.0606 35.0352C70.0606 35.0352 70.2057 35.3544 70.0606 35.4155C69.9155 35.4766 70.0606 35.0352 70.0606 35.0352Z" fill="white"/>
<path id="Vector_93" opacity="0.2" d="M77.2176 37.3429C76.2508 39.8942 62.679 42.0623 61.4022 39.1363C61.265 38.8119 61.1817 38.4619 61.1562 38.1036C61.1831 38.191 61.2152 38.2764 61.2522 38.359C62.5289 41.2822 76.1007 39.1169 77.0675 36.5629C77.1825 36.2467 77.2273 35.9036 77.1979 35.5635C77.402 36.1329 77.409 36.768 77.2176 37.3429Z" fill="black"/>
</g>
<g id="Plant">
<path id="Vector_94" d="M96.0825 93.2326C96.0825 93.2326 94.6926 89.8101 96.2818 86.4375C97.8709 83.065 98.3285 82.2739 97.3174 81.5799C96.3064 80.886 95.8414 84.278 95.8414 84.278C95.8414 84.278 94.9878 81.9463 95.6914 79.5064C96.395 77.0665 96.8378 73.0916 95.8759 72.6642C94.914 72.2367 95.6914 77.6245 94.8574 79.4593C94.4322 78.1707 94.1577 76.8252 94.0407 75.4566C93.9251 73.4969 94.1072 70.3658 93.347 69.5636C92.5869 68.7614 92.0998 69.3166 92.855 73.6412C93.3029 76.2259 93.5498 78.8497 93.593 81.4828C93.593 81.4828 91.9423 75.8091 90.8353 75.6537C89.7283 75.4982 89.7308 77.3191 90.6779 78.9208C91.625 80.5224 93.4528 83.362 93.7529 84.8359C93.7529 84.8359 91.9423 80.5668 90.3089 81.8769C88.6755 83.1871 91.7259 85.763 93.0838 86.6957C94.4417 87.6283 95.3839 93.4686 95.3839 93.4686L96.0825 93.2326Z" fill="white"/>
<path id="Vector_95" opacity="0.2" d="M96.0825 93.2326C96.0825 93.2326 94.6926 89.8101 96.2818 86.4375C97.8709 83.065 98.3285 82.2739 97.3174 81.5799C96.3064 80.886 95.8414 84.278 95.8414 84.278C95.8414 84.278 94.9878 81.9463 95.6914 79.5064C96.395 77.0665 96.8378 73.0916 95.8759 72.6642C94.914 72.2367 95.6914 77.6245 94.8574 79.4593C94.4322 78.1707 94.1577 76.8252 94.0407 75.4566C93.9251 73.4969 94.1072 70.3658 93.347 69.5636C92.5869 68.7614 92.0998 69.3166 92.855 73.6412C93.3029 76.2259 93.5498 78.8497 93.593 81.4828C93.593 81.4828 91.9423 75.8091 90.8353 75.6537C89.7283 75.4982 89.7308 77.3191 90.6779 78.9208C91.625 80.5224 93.4528 83.362 93.7529 84.8359C93.7529 84.8359 91.9423 80.5668 90.3089 81.8769C88.6755 83.1871 91.7259 85.763 93.0838 86.6957C94.4417 87.6283 95.3839 93.4686 95.3839 93.4686L96.0825 93.2326Z" fill="black"/>
<path id="Vector_96" d="M95 94.6338C95 94.6338 96.353 91.1891 94.7294 87.8443C93.1058 84.4995 92.6384 83.7111 93.6421 83.0033C94.6457 82.2955 95.1476 85.6764 95.1476 85.6764C95.1476 85.6764 95.9766 83.3309 95.246 80.9021C94.5154 78.4733 94.0307 74.5178 95 74.0653C95.9692 73.6129 95.246 79.0201 96.0898 80.841C96.5012 79.5457 96.7616 78.1955 96.8647 76.8245C96.9581 74.8648 96.7441 71.7365 97.4969 70.9232C98.2496 70.1099 98.7269 70.6456 98.0381 74.9897C97.618 77.5808 97.3983 80.2083 97.3813 82.8423C97.3813 82.8423 98.9704 77.1437 100.075 76.9577C101.179 76.7717 101.197 78.6232 100.267 80.222C99.337 81.8208 97.5412 84.716 97.2558 86.1899C97.2558 86.1899 99.0221 81.8902 100.663 83.1726C102.304 84.455 99.2779 87.0837 97.9249 88.0358C96.5719 88.9879 95.7109 94.8475 95.7109 94.8475L95 94.6338Z" fill="white"/>
<path id="Vector_97" d="M101.233 92.1777H90.0527L90.958 101.206H100.328L101.233 92.1777Z" fill="#263238"/>
</g>
<g id="Character">
<path id="Vector_98" d="M52.7802 96.8066H65.3532C66.6942 96.8066 67.7812 95.58 67.7812 94.067V82.9111C67.7812 81.3981 66.6942 80.1715 65.3532 80.1715H52.7802C51.4392 80.1715 50.3522 81.3981 50.3522 82.9111V94.067C50.3522 95.58 51.4392 96.8066 52.7802 96.8066Z" fill="#263238"/>
<path id="Vector_99" opacity="0.1" d="M52.7802 96.8066H65.3532C66.6942 96.8066 67.7812 95.58 67.7812 94.067V82.9111C67.7812 81.3981 66.6942 80.1715 65.3532 80.1715H52.7802C51.4392 80.1715 50.3522 81.3981 50.3522 82.9111V94.067C50.3522 95.58 51.4392 96.8066 52.7802 96.8066Z" fill="white"/>
<path id="Vector_100" opacity="0.2" d="M65.3533 96.8111C65.9968 96.8111 66.614 96.5228 67.0693 96.0097C67.5246 95.4965 67.7807 94.8003 67.7813 94.0742V82.9156C67.7813 82.556 67.7185 82.1998 67.5964 81.8676C67.4744 81.5354 67.2955 81.2335 67.07 80.9794C66.8445 80.7252 66.5768 80.5236 66.2823 80.3863C65.9877 80.2489 65.672 80.1783 65.3533 80.1787C65.0347 80.1783 64.7191 80.2489 64.4247 80.3863C64.1303 80.5237 63.8627 80.7253 63.6374 80.9795C63.4121 81.2337 63.2335 81.5356 63.1117 81.8678C62.9899 82.2 62.9274 82.5561 62.9277 82.9156V94.0742C62.9277 94.8001 63.1833 95.4962 63.6382 96.0095C64.093 96.5228 64.71 96.8111 65.3533 96.8111Z" fill="white"/>
<path id="Vector_101" d="M50.3921 85.7025H24.7171L20.8057 62.9023C20.7052 62.3178 20.7206 61.7154 20.8506 61.1383C20.9806 60.5612 21.2221 60.0237 21.5579 59.5642C21.8936 59.1048 22.3151 58.7348 22.7924 58.4808C23.2697 58.2267 23.7909 58.0949 24.3186 58.0947H42.7021C43.5335 58.0955 44.3388 58.4224 44.9801 59.0194C45.6214 59.6165 46.0588 60.4465 46.2175 61.3673L50.3921 85.7025Z" fill="#263238"/>
<g id="Group" opacity="0.1">
<path id="Vector_102" d="M50.3882 85.6986H24.7132L20.8018 62.8984C20.7013 62.3139 20.7167 61.7115 20.8467 61.1344C20.9767 60.5573 21.2182 60.0198 21.5539 59.5603C21.8897 59.1009 22.3112 58.7309 22.7885 58.4769C23.2658 58.2228 23.787 58.091 24.3147 58.0908H42.6982C43.5296 58.0916 44.3349 58.4185 44.9762 59.0155C45.6175 59.6126 46.0549 60.4426 46.2136 61.3634L50.3882 85.6986Z" fill="white"/>
</g>
<path id="Vector_103" opacity="0.2" d="M50.3939 85.6583H32.0079L27.8259 61.3454C27.6671 60.4267 27.229 59.5994 26.5871 59.0064C25.9453 58.4135 25.1401 58.0921 24.3105 58.0977H42.7015C43.5306 58.0937 44.3351 58.4157 44.9767 59.0084C45.6182 59.601 46.0567 60.4274 46.2168 61.3454L50.3939 85.6583Z" fill="white"/>
<path id="Vector_104" d="M49.7945 69.5785C49.6079 68.9562 49.3604 68.3594 49.0565 67.799C48.7789 67.2672 48.463 66.7621 48.1119 66.2888C47.9879 66.1171 47.8162 65.9975 47.6245 65.9494C47.4329 65.9014 47.2324 65.9276 47.0556 66.0238C46.8788 66.1201 46.7358 66.2807 46.6499 66.4799C46.5639 66.6791 46.5399 66.9052 46.5818 67.1216L46.5941 67.1827C46.6753 67.613 46.7638 68.0572 46.8401 68.4902C46.5523 68.146 46.262 67.7851 45.9742 67.4159C45.3444 66.6081 44.7048 65.7503 44.0947 64.9369L44.0726 64.9091C43.8929 64.6709 43.6648 64.4851 43.4078 64.3677C43.1509 64.2502 42.8726 64.2046 42.5966 64.2345C42.5095 64.2442 42.4232 64.2609 42.3383 64.2845C42.1085 64.348 41.8931 64.4653 41.7061 64.6287C41.5251 64.7838 41.3731 64.9777 41.2589 65.1994C41.1446 65.421 41.0704 65.666 41.0404 65.9202C41.0105 66.1744 41.0254 66.4328 41.0843 66.6804C41.1433 66.9281 41.245 67.1601 41.3838 67.3632C41.7208 67.8601 42.0652 68.3348 42.417 68.7956C42.7688 69.2564 43.0787 69.6284 43.4281 70.0532C43.7774 70.4779 44.1661 70.9027 44.5695 71.3191C44.6925 71.444 44.8155 71.5689 44.9434 71.6938C45.2509 71.9973 45.5719 72.2826 45.9053 72.5489C46.2096 72.7905 46.5353 72.9961 46.877 73.1624C46.9311 73.1874 46.9877 73.2124 47.0541 73.2373C47.1218 73.2654 47.1908 73.2895 47.2607 73.3095C47.3418 73.3344 47.4239 73.3548 47.5067 73.3706L47.6593 73.3928C47.7158 73.3961 47.7725 73.3961 47.829 73.3928C47.893 73.3928 47.9471 73.3928 48.0184 73.3928C48.0902 73.3867 48.1616 73.3765 48.2324 73.3623C48.3336 73.3415 48.4331 73.3118 48.5301 73.2734C48.7489 73.1906 48.9542 73.0677 49.1377 72.9098C49.4906 72.6136 49.7494 72.1969 49.8757 71.7216C49.9552 71.4229 49.9909 71.1116 49.9815 70.7999C49.9721 70.3847 49.9091 69.9732 49.7945 69.5785Z" fill="#CE7A63"/>
<path id="Vector_105" opacity="0.1" d="M49.7945 69.5785C49.6079 68.9562 49.3604 68.3594 49.0565 67.799C48.7789 67.2672 48.463 66.7621 48.1119 66.2888C47.9879 66.1171 47.8162 65.9975 47.6245 65.9494C47.4329 65.9014 47.2324 65.9276 47.0556 66.0238C46.8788 66.1201 46.7358 66.2807 46.6499 66.4799C46.5639 66.6791 46.5399 66.9052 46.5818 67.1216L46.5941 67.1827C46.6753 67.613 46.7638 68.0572 46.8401 68.4902C46.5523 68.146 46.262 67.7851 45.9742 67.4159C45.3444 66.6081 44.7048 65.7503 44.0947 64.9369L44.0726 64.9091C43.8929 64.6709 43.6648 64.4851 43.4078 64.3677C43.1509 64.2502 42.8726 64.2046 42.5966 64.2345C42.5095 64.2442 42.4232 64.2609 42.3383 64.2845C42.1085 64.348 41.8931 64.4653 41.7061 64.6287C41.5251 64.7838 41.3731 64.9777 41.2589 65.1994C41.1446 65.421 41.0704 65.666 41.0404 65.9202C41.0105 66.1744 41.0254 66.4328 41.0843 66.6804C41.1433 66.9281 41.245 67.1601 41.3838 67.3632C41.6298 67.7351 41.893 68.096 42.1538 68.4486L42.4145 68.7928C42.7425 69.2185 43.0796 69.6377 43.4256 70.0504C43.7897 70.4779 44.1636 70.8999 44.567 71.3163L44.909 71.6605C44.9186 71.672 44.9293 71.6823 44.941 71.6911C45.2484 71.9945 45.5694 72.2799 45.9028 72.5461C46.2072 72.7877 46.5328 72.9933 46.8745 73.1596C46.9286 73.1846 46.9852 73.2096 47.0516 73.2346C47.1194 73.2626 47.1883 73.2867 47.2583 73.3067C47.3393 73.3317 47.4214 73.3521 47.5043 73.3678L47.6568 73.39C47.7133 73.3934 47.77 73.3934 47.8265 73.39C47.8905 73.39 47.9446 73.39 48.016 73.39C48.0877 73.3839 48.1591 73.3738 48.23 73.3595C48.3311 73.3387 48.4306 73.309 48.5276 73.2706C48.7465 73.1878 48.9517 73.0649 49.1353 72.907C49.4881 72.6108 49.7469 72.1941 49.8733 71.7188C49.9527 71.4201 49.9885 71.1088 49.979 70.7972C49.9702 70.383 49.9081 69.9725 49.7945 69.5785Z" fill="black"/>
<path id="Vector_106" d="M46.3612 66.8892L46.2185 66.0758C46.1666 65.7797 46.1844 65.4734 46.2702 65.1875L46.4325 64.6489C46.4843 64.4765 46.5879 64.3299 46.7254 64.2346C46.8629 64.1392 47.0256 64.1012 47.1853 64.127L47.6773 64.2075C47.768 64.2228 47.8552 64.2581 47.9337 64.3115C48.0123 64.3649 48.0808 64.4352 48.1352 64.5186C48.1896 64.6019 48.2289 64.6965 48.2508 64.797C48.2727 64.8975 48.2767 65.0019 48.2628 65.1042L48.1964 65.5789C48.1964 65.5789 48.1521 66.9281 47.5494 67.7581L47.2886 67.6943C47.089 67.6513 46.9011 67.5561 46.74 67.4163C46.5789 67.2765 46.4492 67.0959 46.3612 66.8892Z" fill="#CE7A63"/>
<path id="Vector_107" opacity="0.1" d="M46.3612 66.8892L46.2185 66.0758C46.1666 65.7797 46.1844 65.4734 46.2702 65.1875L46.4325 64.6489C46.4843 64.4765 46.5879 64.3299 46.7254 64.2346C46.8629 64.1392 47.0256 64.1012 47.1853 64.127L47.6773 64.2075C47.768 64.2228 47.8552 64.2581 47.9337 64.3115C48.0123 64.3649 48.0808 64.4352 48.1352 64.5186C48.1896 64.6019 48.2289 64.6965 48.2508 64.797C48.2727 64.8975 48.2767 65.0019 48.2628 65.1042L48.1964 65.5789C48.1964 65.5789 48.1521 66.9281 47.5494 67.7581L47.2886 67.6943C47.089 67.6513 46.9011 67.5561 46.74 67.4163C46.5789 67.2765 46.4492 67.0959 46.3612 66.8892Z" fill="black"/>
<path id="Vector_108" opacity="0.2" d="M44.9283 71.6516L44.5864 71.3074C44.1854 70.891 43.809 70.4746 43.445 70.0415C43.0809 69.6084 42.7586 69.2087 42.4339 68.7839L42.1731 68.4397C42.0747 67.1683 42.087 66.0661 42.2592 65.5026C42.2765 65.4471 42.2961 65.3999 42.3134 65.3555C42.384 65.3828 42.4531 65.4152 42.52 65.4526C43.1842 65.8107 45.0144 66.9712 44.9283 71.6516Z" fill="black"/>
<path id="Vector_109" d="M43.7081 65.4437C43.8409 66.3708 45.5162 68.1889 44.1582 69.7905C44.5937 70.4678 45.7769 75.4725 45.344 76.519C44.606 77.4489 39.8434 78.4204 35.8115 78.759C35.3072 76.9659 35.5015 72.9632 33.317 67.309C32.8103 65.9961 33.8509 64.0669 36.1805 63.0732C37.219 62.6798 38.3303 62.5975 39.4055 62.8345C40.5494 63.0871 43.467 63.7866 43.7081 65.4437Z" fill="white"/>
<path id="Vector_110" opacity="0.7" d="M45.344 76.5204C44.606 77.4503 39.8459 78.4218 35.8115 78.7604C35.5655 77.8583 35.4794 76.3899 35.1891 74.4358C34.9105 72.5278 34.4689 70.6546 33.8705 68.8426C33.7057 68.343 33.5212 67.8294 33.317 67.2965C32.8103 65.9891 33.8509 64.0572 36.1805 63.0635C37.219 62.6698 38.3306 62.5885 39.4055 62.8275C40.5494 63.0773 43.467 63.774 43.7081 65.434C43.8434 66.3583 45.5162 68.1792 44.1582 69.7808C44.5937 70.4692 45.7769 75.4739 45.344 76.5204Z" fill="white"/>
<path id="Vector_111" d="M42.5354 54.09C42.5354 54.09 43.5194 52.777 40.9487 51.7083C38.378 50.6397 35.1677 51.9859 34.8921 55.9164C34.6166 59.8469 32.9881 60.5103 34.4469 61.8482C35.9057 63.1861 38.2525 61.7122 40.464 62.0092C42.6756 62.3062 43.0151 63.4332 43.3447 61.2459C43.6743 59.0586 43.4382 56.2828 43.4382 56.2828C43.4382 56.2828 43.8687 54.2204 42.5354 54.09Z" fill="#263238"/>
<path id="Vector_112" d="M37.1175 58.4912C37.1175 59.9264 36.9108 62.2112 36.1777 63.2494C36.1777 63.2494 37.3241 64.1766 40.0473 66.0949C41.0313 64.1294 39.9169 63.7352 39.9169 63.7352C39.0338 63.2189 39.2872 62.5165 39.511 61.5144L37.1175 58.4912Z" fill="#CE7A63"/>
<path id="Vector_113" opacity="0.2" d="M39.4739 61.5L37.3903 59.5762C37.3061 59.8649 37.3166 60.1782 37.4198 60.459C37.7175 61.3695 38.576 62.2051 39.3509 62.7131C39.3389 62.3041 39.3803 61.8954 39.4739 61.5Z" fill="black"/>
<path id="Vector_114" opacity="0.2" d="M33.7168 68.407C34.1388 69.6194 34.4889 70.8621 34.7648 72.1269C35.4068 70.5001 35.9603 67.6852 35.6823 66.5137L33.7168 68.407Z" fill="black"/>
<path id="Vector_115" d="M36.8966 55.7483C36.7564 58.0719 36.6506 59.0518 37.5288 60.3816C38.8474 62.3831 41.359 62.0611 42.0995 59.8264C42.7686 57.8165 42.8867 54.3547 41.0294 53.1638C39.1721 51.9728 37.027 53.4247 36.8966 55.7483Z" fill="#CE7A63"/>
<path id="Vector_116" d="M39.7985 57.6012C39.7788 57.7705 39.8428 57.9204 39.9412 57.9343C40.0396 57.9482 40.1355 57.8233 40.1552 57.6567C40.1749 57.4901 40.1109 57.3375 40.01 57.3208C39.9092 57.3041 39.8157 57.4318 39.7985 57.6012Z" fill="#263238"/>
<path id="Vector_117" d="M41.6539 57.896C41.6343 58.0682 41.6982 58.2181 41.7966 58.232C41.895 58.2458 41.991 58.1181 42.0106 57.9543C42.0303 57.7906 41.9664 57.6351 41.868 57.6212C41.7696 57.6073 41.6736 57.7267 41.6539 57.896Z" fill="#263238"/>
<path id="Vector_118" d="M41.8164 57.6272L42.1928 57.5605C42.1928 57.5605 41.9763 57.8548 41.8164 57.6272Z" fill="#263238"/>
<path id="Vector_119" d="M41.1905 57.8779C41.2803 58.2861 41.4193 58.6784 41.6038 59.0439C41.5197 59.0947 41.4269 59.1242 41.3318 59.1304C41.2366 59.1367 41.1414 59.1194 41.0527 59.08L41.1905 57.8779Z" fill="#BA4D3C"/>
<path id="Vector_120" d="M36.1887 57.7188C36.2103 57.9293 36.2712 58.1321 36.3675 58.314C36.4638 58.4958 36.5932 58.6525 36.7471 58.7737C37.1456 59.0652 37.5122 58.6016 37.5417 58.0075C37.5663 57.4745 37.3892 56.6806 36.9218 56.6195C36.4544 56.5584 36.1198 57.1636 36.1887 57.7188Z" fill="#CE7A63"/>
<path id="Vector_121" d="M39.5492 56.5039C39.574 56.5038 39.5978 56.4929 39.6156 56.4734C39.691 56.3797 39.7847 56.3072 39.8894 56.2619C39.9941 56.2166 40.1068 56.1996 40.2183 56.2124C40.2298 56.2148 40.2416 56.2147 40.253 56.2119C40.2644 56.2092 40.2752 56.2039 40.2848 56.1964C40.2944 56.1889 40.3026 56.1794 40.3089 56.1683C40.3153 56.1573 40.3196 56.1449 40.3216 56.1319C40.3241 56.119 40.3242 56.1055 40.3219 56.0925C40.3197 56.0795 40.315 56.0671 40.3083 56.0562C40.3017 56.0453 40.2931 56.036 40.2831 56.029C40.2731 56.022 40.2619 56.0173 40.2503 56.0153C40.1096 55.9944 39.9665 56.0123 39.8333 56.0674C39.7 56.1225 39.5806 56.2132 39.4852 56.3318C39.4684 56.351 39.459 56.377 39.459 56.404C39.459 56.431 39.4684 56.4569 39.4852 56.4762C39.5028 56.494 39.5256 56.5039 39.5492 56.5039Z" fill="#263238"/>
<path id="Vector_122" d="M42.4321 57.084C42.4545 57.0869 42.4771 57.081 42.4961 57.0674C42.5059 57.0599 42.5143 57.0502 42.5208 57.0389C42.5273 57.0277 42.5317 57.0151 42.5338 57.0019C42.5358 56.9887 42.5355 56.9751 42.5328 56.962C42.5302 56.949 42.5252 56.9366 42.5182 56.9258C42.44 56.7949 42.3356 56.6867 42.2133 56.6099C42.091 56.5332 41.9544 56.4902 41.8147 56.4844C41.7909 56.4858 41.7687 56.4976 41.7526 56.5174C41.7365 56.5371 41.7279 56.5631 41.7286 56.5899C41.7298 56.6166 41.7403 56.6418 41.7578 56.6599C41.7752 56.6781 41.7983 56.6878 41.822 56.687C41.9342 56.6912 42.0439 56.7257 42.1419 56.7875C42.2399 56.8493 42.3234 56.9367 42.3854 57.0424C42.3964 57.0618 42.4128 57.0764 42.4321 57.084Z" fill="#263238"/>
<path id="Vector_123" d="M39.9707 57.3295L40.3471 57.2656C40.3471 57.2656 40.1257 57.5571 39.9707 57.3295Z" fill="#263238"/>
<path id="Vector_124" d="M41.7371 53.3281C41.2303 55.4268 37.7002 57.1203 36.7039 57.3007C35.7076 57.4811 35.6117 55.4019 36.6301 54.0777C37.6486 52.7535 39.8453 51.6208 41.7371 53.3281Z" fill="#263238"/>
<path id="Vector_125" d="M41.4579 53.4727C41.3109 54.35 40.9051 55.1455 40.3066 55.7296C40.3066 55.7296 41.5637 55.3659 42.1959 54.3832L41.4579 53.4727Z" fill="#263238"/>
<path id="Vector_126" d="M40.5858 59.9219C40.3857 60.0864 40.1966 60.2674 40.02 60.4633L39.9142 60.3744C39.4419 59.9719 39.3386 59.6082 39.3706 59.3278C39.388 59.1915 39.4344 59.0619 39.5059 58.9503C39.5436 58.8843 39.59 58.8254 39.6436 58.7754C39.8371 59.1701 40.104 59.5129 40.4259 59.7803C40.5317 59.8719 40.5858 59.9219 40.5858 59.9219Z" fill="#263238"/>
<path id="Vector_127" d="M40.4331 59.7803L40.2634 59.9358C39.8181 59.5555 39.55 59.2196 39.5254 58.9503C39.5631 58.8843 39.6095 58.8254 39.6632 58.7754C39.8531 59.1687 40.1157 59.5114 40.4331 59.7803Z" fill="white"/>
<path id="Vector_128" d="M39.924 60.3728C39.4517 59.9702 39.3484 59.6066 39.3803 59.3262C39.5557 59.4812 39.7063 59.669 39.8256 59.8814C39.9043 60.029 39.9388 60.2013 39.924 60.3728Z" fill="#A24E3F"/>
<path id="Vector_129" d="M44.7105 66.5928C44.7047 66.617 44.7035 66.6423 44.7071 66.667C44.7107 66.6917 44.719 66.7152 44.7314 66.736C44.7437 66.7568 44.7599 66.7744 44.7788 66.7875C44.7977 66.8006 44.8188 66.8091 44.8409 66.8122L46.5629 67.0898C46.611 67.0966 46.6597 67.0839 46.7003 67.0538C46.7408 67.0238 46.7706 66.9785 46.7843 66.926L47.6428 63.1477C47.6494 63.122 47.6514 63.0951 47.6485 63.0685C47.6456 63.0419 47.6379 63.0163 47.6259 62.9931C47.6139 62.97 47.5979 62.9499 47.5788 62.934C47.5597 62.9181 47.538 62.9068 47.5149 62.9007L45.7929 62.623C45.7421 62.6228 45.6927 62.6414 45.6522 62.6761C45.6118 62.7107 45.5825 62.7594 45.569 62.8146L44.7105 66.5928Z" fill="#263238"/>
<path id="Vector_130" opacity="0.5" d="M45.7629 62.816L44.8946 66.6303C44.8867 66.6518 44.8835 66.6751 44.8852 66.6982C44.8869 66.7214 44.8934 66.7437 44.9042 66.7635C44.915 66.7833 44.9297 66.7999 44.9473 66.812C44.9649 66.824 44.9847 66.8312 45.0053 66.833L46.4665 67.0634C46.5649 67.0801 46.7519 67.0468 46.7765 66.9413L47.6498 63.1131C47.6744 63.0076 47.5169 62.8937 47.4185 62.8771L45.9573 62.6467C45.9118 62.6411 45.8661 62.6556 45.8299 62.6872C45.7937 62.7187 45.7697 62.7649 45.7629 62.816Z" fill="white"/>
<path id="Vector_131" d="M43.2923 67.0724L43.8802 65.6455L45.7227 67.1696C45.7227 67.1696 44.9134 68.4188 43.8876 68.7658L43.6834 68.516C43.5234 68.3261 43.4047 68.0968 43.3369 67.8463C43.269 67.5957 43.2537 67.3308 43.2923 67.0724Z" fill="#CE7A63"/>
<path id="Vector_132" d="M45.3589 65.2139L45.937 65.8358C45.9998 65.903 46.0503 65.9836 46.0856 66.0728C46.1209 66.1621 46.1402 66.2584 46.1425 66.3561C46.1448 66.4538 46.13 66.551 46.0989 66.6423C46.0679 66.7335 46.0212 66.817 45.9616 66.8879L45.7156 67.1794L43.873 65.6553L44.52 65.1417C44.6456 65.0421 44.7979 64.9949 44.9509 65.008C45.104 65.0212 45.2482 65.094 45.3589 65.2139Z" fill="#CE7A63"/>
<path id="Vector_133" opacity="0.2" d="M37.7313 74.819C36.9638 75.4408 35.9577 74.9828 35.1877 74.4248C34.9091 72.5165 34.4675 70.6432 33.8691 68.831C33.9054 68.7252 33.9626 68.6302 34.0364 68.5534C34.8089 67.8288 39.1581 73.6558 37.7313 74.819Z" fill="black"/>
<path id="Vector_134" d="M36.2159 66.4281C36.238 66.5446 36.2724 66.7306 36.3044 66.8861L36.4102 67.3801C36.484 67.7105 36.5578 68.0408 36.6439 68.3628C36.8035 68.9928 36.9974 69.6111 37.2245 70.2142C37.4152 70.74 37.6631 71.2369 37.9625 71.6937C38.0734 71.8533 38.1996 71.9985 38.3388 72.1267C38.429 72.2115 38.5325 72.2765 38.6439 72.3182C38.6439 72.3182 38.7103 72.3321 38.607 72.3182H38.5184H38.452C38.3708 72.3377 38.356 72.3488 38.3487 72.3599C38.3413 72.371 38.4176 72.3404 38.5012 72.2933C38.7202 72.1548 38.9269 71.9931 39.1186 71.8103C39.5911 71.375 40.0428 70.9118 40.4716 70.4224C41.3745 69.412 42.265 68.3045 43.1604 67.2303L43.1752 67.2136C43.3167 67.0433 43.5078 66.936 43.7135 66.9113C43.9193 66.8865 44.1261 66.946 44.2962 67.0788C44.4664 67.2117 44.5886 67.409 44.6407 67.635C44.6927 67.861 44.6712 68.1005 44.5798 68.31C43.9708 69.7067 43.2651 71.0469 42.4692 72.3182C42.0531 72.9856 41.5969 73.62 41.1039 74.2169C40.8185 74.5593 40.5073 74.8732 40.174 75.1551C39.9495 75.342 39.7059 75.4977 39.4483 75.6186C39.2616 75.708 39.0658 75.7705 38.8653 75.8046C38.8111 75.8046 38.7373 75.824 38.6734 75.8296C38.6021 75.8338 38.5307 75.8338 38.4594 75.8296C38.3647 75.8258 38.2703 75.8165 38.1765 75.8018C37.6287 75.7248 37.1011 75.5206 36.6267 75.2023C36.2086 74.9194 35.8284 74.5708 35.4975 74.1669C34.9369 73.4764 34.4709 72.6951 34.115 71.8491C33.7857 71.0871 33.5117 70.2962 33.2958 69.4842C33.1901 69.0872 33.0917 68.6931 33.0105 68.2906C32.9687 68.0907 32.9293 67.8909 32.8949 67.6855C32.8604 67.4801 32.8309 67.2941 32.7965 67.0387C32.7159 66.5297 32.8178 66.0053 33.0799 65.5811C33.3419 65.1568 33.7426 64.8674 34.1937 64.7765C34.6449 64.6856 35.1096 64.8006 35.4856 65.0963C35.8616 65.3919 36.1181 65.844 36.1986 66.3531L36.2159 66.4281Z" fill="#CE7A63"/>
<path id="Vector_135" d="M77.945 88.5447C76.5478 89.7468 74.8676 89.6219 74.1099 88.4559C73.6917 87.8119 71.9746 89.447 71.9746 89.447C73.6966 91.0155 73.5662 91.6123 73.8319 92.1953C74.0976 92.7783 74.5379 93.278 74.8922 92.9393C75.3153 92.5312 75.4383 92.248 75.9721 91.7511C76.5969 91.1709 77.271 90.538 78.3436 89.4608C78.774 89.0361 78.5674 88.0173 77.945 88.5447Z" fill="#263238"/>
<path id="Vector_136" d="M74.6459 88.4998L72.9239 90.5206C70.3237 89.3687 68.1614 88.3 66.3631 87.3229C57.9991 82.7734 57.4038 80.1503 56.2377 80.0088C56.0016 80.0207 55.7707 80.0908 55.5612 80.2142C52.8233 81.5271 44.0853 88.6581 39.5712 87.1536C34.5602 85.4881 35.8025 78.7625 35.8025 78.7625C49.244 73.7272 57.6498 72.9861 61.0987 75.4315C64.5476 77.877 74.6459 88.4998 74.6459 88.4998Z" fill="white"/>
<path id="Vector_137" opacity="0.2" d="M74.6459 88.4998L72.9239 90.5206C70.3237 89.3687 68.1614 88.3 66.3631 87.3229C57.9991 82.7734 57.4038 80.1503 56.2377 80.0088C56.0016 80.0207 55.7707 80.0908 55.5612 80.2142C52.8233 81.5271 44.0853 88.6581 39.5712 87.1536C34.5602 85.4881 35.8025 78.7625 35.8025 78.7625C49.244 73.7272 57.6498 72.9861 61.0987 75.4315C64.5476 77.877 74.6459 88.4998 74.6459 88.4998Z" fill="black"/>
<path id="Vector_138" opacity="0.2" d="M66.3624 87.3133C57.9984 82.7633 57.4031 80.1399 56.237 79.9983C56.001 80.0102 55.7701 80.0803 55.5605 80.2037L55.5901 80.0816C55.5901 80.0816 59.2038 79.0017 61.6417 79.9483C63.4055 80.634 65.3981 84.973 66.3624 87.3133Z" fill="black"/>
<path id="Vector_139" d="M59.3434 96.1504L60.074 101.2H58.5094L57.0703 96.3836L59.3434 96.1504Z" fill="#263238"/>
<path id="Vector_140" d="M39.6408 96.1504L38.9102 101.2H40.4772L41.9138 96.3836L39.6408 96.1504Z" fill="#263238"/>
<path id="Vector_141" opacity="0.1" d="M59.3434 96.1504L60.074 101.2H58.5094L57.0703 96.3836L59.3434 96.1504Z" fill="white"/>
<path id="Vector_142" opacity="0.1" d="M39.6408 96.1504L38.9102 101.2H40.4772L41.9138 96.3836L39.6408 96.1504Z" fill="white"/>
<path id="Vector_143" d="M48.0855 96.1504L48.8162 101.2H47.2516L45.8125 96.3836L48.0855 96.1504Z" fill="#263238"/>
<path id="Vector_144" d="M26.7111 96.1504L25.9805 101.2H27.545L28.9841 96.3836L26.7111 96.1504Z" fill="#263238"/>
<path id="Vector_145" d="M60.6708 85.6523H25.4633C24.4675 85.6523 23.6602 86.5633 23.6602 87.687V95.3953C23.6602 96.519 24.4675 97.4299 25.4633 97.4299H60.6708C61.6667 97.4299 62.474 96.519 62.474 95.3953V87.687C62.474 86.5633 61.6667 85.6523 60.6708 85.6523Z" fill="#263238"/>
<path id="Vector_146" opacity="0.1" d="M60.6708 85.6523H25.4633C24.4675 85.6523 23.6602 86.5633 23.6602 87.687V95.3953C23.6602 96.519 24.4675 97.4299 25.4633 97.4299H60.6708C61.6667 97.4299 62.474 96.519 62.474 95.3953V87.687C62.474 86.5633 61.6667 85.6523 60.6708 85.6523Z" fill="white"/>
<path id="Vector_147" opacity="0.2" d="M60.6729 85.6523H39.02C38.0241 85.6523 37.2168 86.5633 37.2168 87.687V95.3953C37.2168 96.519 38.0241 97.4299 39.02 97.4299H60.6729C61.6687 97.4299 62.476 96.519 62.476 95.3953V87.687C62.476 86.5633 61.6687 85.6523 60.6729 85.6523Z" fill="white"/>
<path id="Vector_148" d="M21.8603 96.8066H34.4333C35.7743 96.8066 36.8613 95.58 36.8613 94.067V82.9111C36.8613 81.3981 35.7743 80.1715 34.4333 80.1715H21.8603C20.5193 80.1715 19.4322 81.3981 19.4322 82.9111V94.067C19.4322 95.58 20.5193 96.8066 21.8603 96.8066Z" fill="#263238"/>
<path id="Vector_149" opacity="0.1" d="M21.8603 96.8066H34.4333C35.7743 96.8066 36.8613 95.58 36.8613 94.067V82.9111C36.8613 81.3981 35.7743 80.1715 34.4333 80.1715H21.8603C20.5193 80.1715 19.4322 81.3981 19.4322 82.9111V94.067C19.4322 95.58 20.5193 96.8066 21.8603 96.8066Z" fill="white"/>
<path id="Vector_150" opacity="0.2" d="M34.4358 96.8111C35.0794 96.8111 35.6966 96.5228 36.1518 96.0097C36.6071 95.4965 36.8632 94.8003 36.8638 94.0742V82.9156C36.8638 82.556 36.801 82.1998 36.679 81.8676C36.5569 81.5354 36.378 81.2335 36.1525 80.9794C35.9271 80.7252 35.6594 80.5236 35.3648 80.3863C35.0702 80.2489 34.7546 80.1783 34.4358 80.1787C34.1171 80.1783 33.8014 80.2489 33.5069 80.3863C33.2123 80.5236 32.9446 80.7252 32.7191 80.9794C32.4936 81.2335 32.3147 81.5354 32.1927 81.8676C32.0706 82.1998 32.0078 82.556 32.0078 82.9156V94.0742C32.0085 94.8003 32.2646 95.4965 32.7198 96.0097C33.1751 96.5228 33.7923 96.8111 34.4358 96.8111Z" fill="white"/>
<path id="Vector_151" d="M64.3061 99.5088C64.3269 98.4498 64.2193 97.3925 63.9863 96.3663C63.9863 96.3663 65.8116 95.2753 65.9027 96.0582C66.0675 97.4795 67.2434 99.556 68.6997 99.8364C69.5312 99.9974 68.9851 100.714 68.3873 100.889C67.4353 101.166 67.3516 101 66.5177 100.716C65.8067 100.472 65.5337 100.378 64.9457 100.553C64.4636 100.697 64.3307 100.161 64.3061 99.5088Z" fill="#263238"/>
<path id="Vector_152" d="M66.1729 96.1534L63.9589 97.3303C63.9589 97.3303 58.5198 88.223 57.7474 85.8192C57.7474 85.8192 54.0352 85.9025 49.0242 85.7276C48.114 85.6971 47.5753 85.7276 46.5938 85.6527C46.5938 85.6527 51.3268 80.8395 55.5924 80.0845C55.8114 80.0456 56.0254 80.0179 56.2394 80.0012C56.2394 80.0012 60.0327 79.6654 61.1053 80.7007C62.1778 81.7361 66.1729 96.1534 66.1729 96.1534Z" fill="white"/>
<path id="Vector_153" opacity="0.2" d="M66.1729 96.1534L63.9589 97.3303C63.9589 97.3303 58.5198 88.223 57.7474 85.8192C57.7474 85.8192 54.0352 85.9025 49.0242 85.7276C48.114 85.6971 47.5753 85.7276 46.5938 85.6527C46.5938 85.6527 51.3268 80.8395 55.5924 80.0845C55.8114 80.0456 56.0254 80.0179 56.2394 80.0012C56.2394 80.0012 60.0327 79.6654 61.1053 80.7007C62.1778 81.7361 66.1729 96.1534 66.1729 96.1534Z" fill="black"/>
<path id="Vector_154" opacity="0.2" d="M55.5963 80.085C53.9334 82.3364 51.2003 84.3213 49.0281 85.7287C48.1179 85.6982 47.5792 85.7287 46.5977 85.6538C46.5952 85.6538 51.3282 80.8401 55.5963 80.085Z" fill="black"/>
</g>
</g>
</svg>
